<svg width="32" height="32" viewBox="0 0 32 32" fill="none" xmlns="http://www.w3.org/2000/svg">
<path d="M27.9637 25.2784C27.9075 27.0235 26.4713 28.4236 24.7142 28.4236C22.9571 28.4236 21.521 27.0235 21.4648 25.2784H19.2945C19.2384 27.0235 17.8022 28.4236 16.0451 28.4236C14.288 28.4236 12.8518 27.0235 12.7956 25.2784H10.6173C10.5612 27.0235 9.12497 28.4236 7.36787 28.4236C5.61077 28.4236 4.17461 27.0235 4.11845 25.2784H1.95215C2.01232 28.219 4.41932 30.5899 7.37189 30.5899C9.14504 30.5899 10.7216 29.7314 11.7085 28.4115C12.6994 29.7314 14.2719 30.5899 16.0451 30.5899C17.8182 30.5899 19.3908 29.7354 20.3776 28.4196C21.3685 29.7354 22.9411 30.5899 24.7102 30.5899C27.6628 30.5899 30.0698 28.215 30.13 25.2784H27.9637Z" fill="#1E3E37"/>
<path d="M9.7591 10.0984C9.7591 8.89893 10.7299 7.93213 11.9294 7.93213H20.1693C21.3648 7.93213 22.3396 8.90295 22.3396 10.0984V12.0481L16.0734 10.0984L16.0494 10.1827L16.0253 10.0984L9.7591 12.0481V10.0984ZM14.9622 3.16228H17.1285V5.76584H14.9622V3.16228ZM3.38459 16.3044H3.39663L6.19676 25.2785H8.46734L5.46262 15.6545L16.0413 12.353L26.62 15.6545L23.6153 25.2785H25.8859L28.6861 16.3004H28.6981L29.344 14.2344L24.4939 12.726V9.99411L22.3236 7.93614L20.1533 5.76985H19.2868V3.16629L17.1205 1H14.9502L12.7799 3.16629V5.76985H12.0217L9.74304 7.93614L7.57275 10.1024V12.726L2.72266 14.2344L3.36855 16.3044H3.38459Z" fill="#1E3E37"/>
</svg>
