<svg width="32" height="32" viewBox="0 0 32 32" fill="none" xmlns="http://www.w3.org/2000/svg">
<path d="M27.0795 28.464H4.92772C3.84333 28.464 2.96929 27.5863 2.96929 26.5019V15.154L5.49711 17.6818H10.2227V14.5592L13.3453 17.6818H18.0564V14.5447L21.1934 17.6818H25.8066L26.492 3.95841H28.4541L29.0053 26.8864C28.8276 27.7858 28.0334 28.464 27.0832 28.464M30.4125 3.95841L28.4504 2H26.4884L24.53 3.95841L23.9425 15.7198V15.3281C23.9425 16.3327 23.4384 16.9891 22.3503 16.0679L18.0817 11.7993L18.0527 11.8283V11.7993L16.0943 13.7614V15.5276C16.029 16.427 15.5068 16.942 14.4623 16.028L10.2336 11.7993L10.219 11.8138V11.7993L8.26065 13.7614V15.3281C8.26065 16.3653 7.72026 17.0363 6.54884 15.9628L2.3854 11.7993L1.0145 13.1702H1.00726V13.1775L1 13.1847L1.00726 13.192V26.5999L2.96929 28.464L4.92772 30.4224H27.0795L29.038 28.464L31 26.5999L30.4125 3.95841Z" fill="#A884FF"/>
</svg>
