<svg xmlns="http://www.w3.org/2000/svg" xmlns:xlink="http://www.w3.org/1999/xlink" id="Layer_1" x="0px" y="0px" viewBox="0 0 215 70" style="enable-background:new 0 0 215 70;" xml:space="preserve"><style type="text/css">	.st0{fill-rule:evenodd;clip-rule:evenodd;}</style><g>	<path class="st0" d="M11.6,8.7h35.1c2.3,0,4.6,0.9,6.2,2.6c1.7,1.7,2.6,3.9,2.6,6.2v35.1c0,4.9-3.9,8.8-8.8,8.8H11.6  c-4.9,0-8.8-3.9-8.8-8.8V17.5C2.8,12.6,6.7,8.7,11.6,8.7z M43.1,51.8c1.5,0,2.8-1.2,2.8-2.8l0-28c0-1.5-1.2-2.8-2.8-2.8h-28  c-0.7,0-1.4,0.3-2,0.8c-0.5,0.5-0.8,1.2-0.8,2v28c0,1.5,1.2,2.8,2.8,2.8H43.1z"></path>	<path d="M23.5,42.1c-0.9,0-1.6-0.7-1.6-1.6V29.4c0-0.4,0.2-0.8,0.5-1.1c0.3-0.3,0.7-0.5,1.1-0.5h11.2c0.4,0,0.8,0.2,1.1,0.5  c0.3,0.3,0.5,0.7,0.5,1.1v11.2c0,0.4-0.2,0.8-0.5,1.1c-0.3,0.3-0.7,0.5-1.1,0.5L23.5,42.1z"></path>	<path d="M82.2,32.7c-1.6-0.4-3.2-0.9-4.4-1.4c-2.2-1-3.3-2.4-3.3-4.3c0-3.7,3.6-5.4,7.1-5.4c3.4,0,6.3,1.4,8.3,3.9l0.1,0.2l2.9-2.2  L93,23.3c-2.6-3.4-6.6-5.2-11-5.2c-3,0-5.7,0.8-7.7,2.3c-2.2,1.6-3.4,4-3.4,6.8c0,6.5,6.1,8.1,11.1,9.4c5,1.3,8.1,2.3,8.1,6.1  c0,3.8-3,6.2-7.7,6.2c-2.3,0-6.6-0.6-9.3-4.7l-0.1-0.2l-3,2.2l0.1,0.2c2.6,3.9,7,6.1,12.1,6.1c7,0,11.7-3.9,11.7-9.8  C93.8,35.8,87.4,34.1,82.2,32.7z"></path>	<path class="st0" d="M116.6,31.3v-3.5h3.4v33.6h-3.4V48.2c-1.9,2.6-4.8,4.1-8.2,4.1c-6.4,0-10.9-5.1-10.9-12.5  c0-7.4,4.5-12.6,10.9-12.6C111.8,27.2,114.6,28.7,116.6,31.3z M101.1,39.7c0,6.9,3.9,9.3,7.6,9.3l0,0c4.8,0,7.9-3.7,7.9-9.3  s-3.1-9.2-7.9-9.2C103.1,30.5,101.1,35.3,101.1,39.7z"></path>	<path d="M142.2,27.8V41c0,4.6-3.2,8-7.6,8c-3.6,0-5.4-2.2-5.4-6.6V27.8h-3.4v15.4c0,5.8,3.1,9.2,8.4,9.2c3.3,0,6.1-1.4,8-3.9v3.4  h3.4v-24H142.2z"></path>	<path class="st0" d="M151.9,30.3c2.5-2,5.9-3.1,9.2-3.1c5.4,0,8.5,2.7,8.5,7.1v17.4h-3.4v-2.7c-1.7,2.1-4.2,3.2-7.3,3.2  c-5.2,0-8.4-2.8-8.4-7.4c0-5.9,5.6-6.8,7.9-7.2c0.4-0.1,0.8-0.1,1.2-0.2h0l0,0c3.2-0.5,6.6-1,6.6-3.8c0-3.1-4-3.3-5.3-3.3  c-2.2,0-5.3,0.6-7.4,2.5l-0.2,0.2l-1.8-2.7L151.9,30.3z M154.2,44.8c0,3.8,3.6,4.3,5.2,4.3h0c3.4,0,7-1.8,7-6.9v-3.5  c-1.6,1-4,1.4-6.1,1.8l0,0l-1,0.2C155.9,41.3,154.2,42.1,154.2,44.8z"></path>	<path d="M189.2,28.2c-0.8-0.6-2.1-0.9-3.4-0.9c-2.7,0-5.2,1.3-6.8,3.5v-3.1h-3.4v24h3.4V38.9c0-5.7,3.2-8.2,6.4-8.2  c0.9,0,1.8,0.2,2.7,0.6l0.2,0.1l1.1-3.1L189.2,28.2z"></path>	<path class="st0" d="M190.2,39.8c0-7.4,4.6-12.6,11.2-12.6c6.4,0,10.8,4.6,10.8,11.2c0,0.6,0,1.1-0.1,1.7l0,0.2h-18.4  c0.1,5.3,3.3,8.7,8.1,8.7c2.8,0,5.2-1.1,6.8-3.2l0.1-0.2l2.4,2.2l-0.1,0.2c-1.6,2-4.6,4.3-9.5,4.3  C194.8,52.3,190.2,47.3,190.2,39.8z M201.3,30.4c-4.1,0-7,2.7-7.5,6.9h14.8C208.4,34,206.3,30.4,201.3,30.4z"></path></g></svg>