<svg xmlns="http://www.w3.org/2000/svg" xmlns:xlink="http://www.w3.org/1999/xlink" id="Layer_1" x="0px" y="0px" viewBox="0 0 215 70" style="enable-background:new 0 0 215 70;" xml:space="preserve"><style type="text/css">	.st0{fill:#82A70C;}	.st1{fill:#42515F;}</style><g>	<path class="st0" d="M33.8,32.7c0,0.5,0.1,0.9,0.2,1.2c0.4,1.1,1.6,1.3,2.6,1.3c0.9,0,2.3-0.3,2.3-1.6c0-0.9-0.8-1.2-3.9-2.1  c-2.8-0.8-6.1-1.6-6.1-5.2c0-4.2,3.6-5.9,7.2-5.9c3.9,0,7.3,1.5,7.5,5.9h-5.2c0.1-0.7-0.2-1.1-0.6-1.4c-0.5-0.3-1.1-0.5-1.6-0.5  c-0.7,0-2,0.2-2,1.2c0.1,1.3,2.7,1.6,5.2,2.3c2.5,0.7,5,1.9,5,5.2c0,4.7-4.3,6.2-8.3,6.2c-2,0-7.8-0.7-7.9-6.5L33.8,32.7L33.8,32.7  z"></path>	<path class="st0" d="M61.7,31.9c0,5-2.7,7.3-8.2,7.3s-8.2-2.4-8.2-7.3v-11h5.5v9.8c0,1.8,0,4.1,2.7,4.1c2.6,0,2.6-2.3,2.6-4.1v-9.8  h5.5L61.7,31.9L61.7,31.9z"></path>	<path class="st0" d="M63.6,20.9h10.5c3.1,0,5.9,1.7,5.9,5.1c0,1.8-0.9,3.8-2.7,4.5c1.5,0.6,2.4,2.2,2.6,4.5c0.1,0.9,0.1,3,0.6,3.8  H75c-0.3-0.9-0.4-1.8-0.5-2.8c-0.1-1.7-0.3-3.5-2.5-3.5h-2.9v6.2h-5.5L63.6,20.9L63.6,20.9z M69.1,28.7H72c1,0,2.4-0.2,2.4-1.8  c0-1.1-0.6-1.8-2.7-1.8h-2.6V28.7z"></path>	<polygon class="st0" points="81.8,20.9 96.6,20.9 96.6,25.4 87.3,25.4 87.3,27.7 95.7,27.7 95.7,32 87.3,32 87.3,34.2 96.9,34.2   96.9,38.8 81.8,38.8  "></polygon>	<path class="st1" d="M99.4,20.9h9.3c4.9,0,6.6,3.6,6.6,6.1c0,4.3-2.9,6.4-7,6.4H105v5.4h-5.5V20.9z M105,29.1h2.1  c1.4,0,2.9-0.1,2.9-1.9c0-1.6-1.2-1.7-2.6-1.7H105V29.1z"></path>	<path class="st1" d="M120.3,20.9h5.4l6.5,17.9h-5.7l-0.7-2.6H120l-0.8,2.6h-5.5L120.3,20.9z M124.6,32.4l-1.6-5.5h0l-1.7,5.5H124.6  z"></path>	<polygon class="st1" points="134.8,32.2 128.5,20.9 134.6,20.9 137.6,27.5 140.7,20.9 146.8,20.9 140.3,32.2 140.3,38.8   134.8,38.8  "></polygon>	<path class="st1" d="M147.9,20.9h10.5c3.1,0,5.9,1.7,5.9,5.1c0,1.8-0.9,3.8-2.7,4.5c1.5,0.6,2.4,2.2,2.6,4.5c0.1,0.9,0.1,3,0.6,3.8  h-5.5c-0.3-0.9-0.4-1.8-0.5-2.8c-0.1-1.7-0.3-3.5-2.5-3.5h-2.9v6.2h-5.5L147.9,20.9L147.9,20.9z M153.4,28.7h2.9  c1,0,2.4-0.2,2.4-1.8c0-1.1-0.6-1.8-2.7-1.8h-2.6V28.7z"></path>	<path class="st1" d="M174.6,20.4c5.5,0,9.1,3.9,9.1,9.4c0,5.5-3.7,9.4-9.1,9.4c-5.5,0-9.1-3.9-9.1-9.4S169.2,20.4,174.6,20.4   M174.6,34.7c1.4,0,3.6-0.9,3.6-4.9s-2.2-4.9-3.6-4.9c-1.4,0-3.6,0.9-3.6,4.9C171,33.8,173.2,34.7,174.6,34.7"></path>	<polygon class="st1" points="185.2,20.9 190.7,20.9 190.7,34.2 198.6,34.2 198.6,38.8 185.2,38.8  "></polygon>	<polygon class="st1" points="200.5,20.9 206.1,20.9 206.1,34.2 214,34.2 214,38.8 200.5,38.8  "></polygon>	<polygon class="st1" points="9.3,38.8 19,38.8 19,27.4  "></polygon>	<polygon class="st0" points="7.6,34.5 19,21.1 19,20.9 1,20.9 1,29.8  "></polygon>	<polygon class="st1" points="1,34.8 1,38.8 6.5,38.8  "></polygon>	<path class="st1" d="M101.3,44.5h1.1l1.8,4.9h-1.1l-0.4-1.1h-1.8l-0.4,1.1h-1.1L101.3,44.5z M101.2,47.5h1.3l-0.6-1.8l0,0  L101.2,47.5z"></path>	<path class="st1" d="M107.3,44.5h2.2c1.2,0,1.7,0.8,1.7,1.6c0,0.8-0.5,1.6-1.7,1.6h-1.1v1.8h-1.1L107.3,44.5L107.3,44.5z   M108.4,46.8h0.9c0.5,0,1-0.1,1-0.7c0-0.6-0.5-0.7-1-0.7h-0.9V46.8z"></path>	<path class="st1" d="M113.1,44.5h1.1l1.8,4.9h-1.1l-0.4-1.1h-1.8l-0.4,1.1h-1.1L113.1,44.5z M113,47.5h1.3l-0.6-1.8l0,0L113,47.5z"></path>	<polygon class="st1" points="117.6,47.5 115.8,44.5 117,44.5 118.1,46.4 119.3,44.5 120.5,44.5 118.7,47.5 118.7,49.4 117.6,49.4    "></polygon>	<path class="st1" d="M124.2,46.2c-0.1-0.5-0.5-0.9-1.1-0.9c-1,0-1.3,0.8-1.3,1.7c0,0.8,0.4,1.7,1.3,1.7c0.7,0,1-0.5,1.1-1.1h1.1  c-0.1,1.2-1,2-2.2,2c-1.5,0-2.4-1.1-2.4-2.6c0-1.5,0.9-2.6,2.4-2.6c1.1,0,2,0.6,2.1,1.8L124.2,46.2L124.2,46.2z"></path>	<polygon class="st1" points="126.4,44.5 127.5,44.5 127.5,46.4 129.5,46.4 129.5,44.5 130.6,44.5 130.6,49.4 129.5,49.4   129.5,47.3 127.5,47.3 127.5,49.4 126.4,49.4  "></polygon>	<polygon class="st1" points="131.9,44.5 135.6,44.5 135.6,45.4 133,45.4 133,46.5 135.4,46.5 135.4,47.3 133,47.3 133,48.5   135.7,48.5 135.7,49.4 131.9,49.4  "></polygon>	<polygon class="st1" points="137.9,46.8 136.3,44.5 137.6,44.5 138.6,46.1 139.6,44.5 140.8,44.5 139.2,46.9 140.9,49.4   139.6,49.4 138.5,47.7 137.4,49.4 136.2,49.4  "></polygon>	<path class="st1" d="M142.8,44.2c0.8,0,1.6,0.6,1.6,1.5c0,0.9-0.7,1.5-1.6,1.5s-1.6-0.6-1.6-1.5C141.3,44.8,142,44.2,142.8,44.2   M142.8,46.9c0.6,0,1.1-0.5,1.1-1.2c0-0.7-0.5-1.2-1.1-1.2c-0.6,0-1.1,0.5-1.1,1.2C141.7,46.4,142.2,46.9,142.8,46.9 M142.2,44.9  h0.6c0.4,0,0.7,0.1,0.7,0.5c0,0.3-0.2,0.4-0.4,0.5l0.5,0.7h-0.4l-0.4-0.7h-0.2v0.7h-0.3L142.2,44.9L142.2,44.9z M142.5,45.6h0.3  c0.2,0,0.3,0,0.3-0.2c0-0.2-0.2-0.2-0.4-0.2h-0.3L142.5,45.6L142.5,45.6z"></path>	<path class="st1" d="M150.7,46.2c-0.1-0.5-0.5-0.9-1.1-0.9c-1,0-1.3,0.8-1.3,1.7c0,0.8,0.4,1.7,1.3,1.7c0.7,0,1-0.5,1.1-1.1h1.1  c-0.1,1.2-1,2-2.2,2c-1.5,0-2.4-1.1-2.4-2.6c0-1.5,0.9-2.6,2.4-2.6c1.1,0,2,0.6,2.1,1.8L150.7,46.2L150.7,46.2z"></path>	<path class="st1" d="M154.7,44.4c1.5,0,2.4,1.1,2.4,2.6c0,1.4-0.9,2.6-2.4,2.6c-1.5,0-2.4-1.1-2.4-2.6  C152.3,45.5,153.2,44.4,154.7,44.4 M154.7,48.6c1,0,1.3-0.8,1.3-1.7c0-0.9-0.4-1.7-1.3-1.7c-1,0-1.3,0.8-1.3,1.7  C153.4,47.8,153.8,48.6,154.7,48.6"></path>	<polygon class="st1" points="157.9,44.5 159.4,44.5 160.6,47.9 160.6,47.9 161.7,44.5 163.2,44.5 163.2,49.4 162.2,49.4 162.2,46   162.2,46 161,49.4 160.1,49.4 158.9,46 158.9,46 158.9,49.4 157.9,49.4  "></polygon>	<path class="st1" d="M164.5,44.5h2.2c1.2,0,1.7,0.8,1.7,1.6c0,0.8-0.5,1.6-1.7,1.6h-1.1v1.8h-1.1L164.5,44.5L164.5,44.5z   M165.6,46.8h0.9c0.5,0,1-0.1,1-0.7c0-0.6-0.5-0.7-1-0.7h-0.9V46.8z"></path>	<path class="st1" d="M170.3,44.5h1.1l1.8,4.9h-1.1l-0.4-1.1h-1.8l-0.4,1.1h-1.1L170.3,44.5z M170.2,47.5h1.3l-0.6-1.8l0,0  L170.2,47.5z"></path>	<polygon class="st1" points="174.1,44.5 175.1,44.5 177.2,47.8 177.2,47.8 177.2,44.5 178.2,44.5 178.2,49.4 177.2,49.4   175.1,46.1 175.1,46.1 175.1,49.4 174.1,49.4  "></polygon>	<polygon class="st1" points="180.8,47.5 179,44.5 180.2,44.5 181.4,46.4 182.5,44.5 183.7,44.5 181.9,47.5 181.9,49.4 180.8,49.4    "></polygon></g><g></g><g></g><g></g><g></g><g></g><g></g><g></g><g></g><g></g><g></g><g></g><g></g><g></g><g></g><g></g></svg>