<?xml version="1.0" encoding="utf-8"?>
<svg xmlns="http://www.w3.org/2000/svg" xmlns:xlink="http://www.w3.org/1999/xlink" version="1.1" id="Layer_1" x="0px" y="0px" viewBox="0 0 215 70" style="enable-background:new 0 0 215 70;">
<style type="text/css">
	.st0{fill:#00A2FF;}
	.st1{fill:#FFFFFF;}
	.st2{fill:#D0271D;}
</style>
<path class="st0" d="M389.6,576.8c0,46.4-37.6,84-84,84c-46.4,0-84-37.6-84-84c0-46.4,37.6-84,84-84&#xD;&#xA;	C352,492.8,389.6,530.4,389.6,576.8z"/>
<path class="st1" d="M261.5,554c0,10.1,8.2,18.4,18.4,18.4c10.1,0,18.4-8.2,18.4-18.4c0-10.1-8.2-18.4-18.4-18.4&#xD;&#xA;	C269.7,535.7,261.5,543.9,261.5,554z M273.5,554c0-3.5,2.9-6.4,6.4-6.4c3.5,0,6.4,2.9,6.4,6.4c0,3.5-2.9,6.4-6.4,6.4&#xD;&#xA;	C276.3,560.4,273.5,557.5,273.5,554z M313,585.5c0,10.1,8.2,18.4,18.4,18.4c10.1,0,18.4-8.2,18.4-18.4c0-10.1-8.2-18.4-18.4-18.4&#xD;&#xA;	C321.2,567.2,313,575.4,313,585.5z M325,585.5c0-3.5,2.9-6.4,6.4-6.4c3.5,0,6.4,2.9,6.4,6.4c0,3.5-2.9,6.4-6.4,6.4&#xD;&#xA;	C327.8,591.9,325,589,325,585.5z M307.4,606.6c-4,1.5-35,14.3-35,14.3s-0.9-33.5-1.1-37.8c-0.2-4.3,3-4.8,5.4-1.9l8.2,9.6l37.9-58.3&#xD;&#xA;	h14.3L295,597.4l12,3.6C310.6,601.9,311.4,605.1,307.4,606.6z"/>
<g>
	<path class="st2" d="M126.3,35c0,10.5-8.5,19-19,19H100v-8.4h7.3c5.9,0,10.6-4.8,10.6-10.6s-4.8-10.6-10.6-10.6l0,0H100V16h7.3&#xD;&#xA;		C117.8,16,126.3,24.5,126.3,35 M85.8,16v15.4H72.6l-4.8,8.4h26.3V16H85.8z M180.6,27.9c0,14.4-11.7,26.1-26.1,26.1v14.2h-22.5V57.1&#xD;&#xA;		c-6.3,7.1-15.3,11.2-24.8,11.1H85.8V54H69.1l-8.4,14.2H34.4L73.1,1.8h34.2c9.5,0.1,18.5,4.1,24.8,11.1V1.8h22.5&#xD;&#xA;		C169,1.9,180.6,13.6,180.6,27.9 M107.3,59.8c9.6,0,18.4-5.5,22.5-14.2h10.6v14.2h5.8V45.6h8.4c9.8,0,17.7-7.9,17.7-17.7&#xD;&#xA;		c0,0,0,0,0,0c-0.1-9.8-8.1-17.8-18-17.7h-14.2v21.3h-8.4c-1.9-12.2-12.3-21.2-24.6-21.3H78.1L49,59.8h6.9l8.4-14.2h29.9v14.2H107.3&#xD;&#xA;		z M154.5,16h-8.4v8.4h8.4c1.9,0,3.5,1.6,3.5,3.5c0,0,0,0,0,0c-0.1,1.9-1.6,3.5-3.5,3.5h-8.4v8.4h8.4c6.6,0,11.9-5.3,11.9-11.9v0&#xD;&#xA;		C166.3,21.4,161,16.1,154.5,16"/>
	<path class="st2" d="M166.2,64c0,1.8-1.5,3.3-3.3,3.3s-3.3-1.5-3.3-3.3c0-1.8,1.5-3.3,3.3-3.3l0,0C164.6,60.7,166.1,62.1,166.2,64&#xD;&#xA;		C166.2,64,166.2,64,166.2,64 M167,64c0-2.3-1.9-4.2-4.2-4.2c-2.3,0-4.2,1.9-4.2,4.2c0,2.3,1.9,4.2,4.2,4.2&#xD;&#xA;		C165.1,68.2,167,66.3,167,64"/>
	<path class="st2" d="M163,62.1c0.5,0,0.8,0.4,0.8,0.8c0,0.5-0.4,0.8-0.8,0.8c0,0,0,0,0,0h-0.8v-1.7H163z M164.1,61.9&#xD;&#xA;		c-0.3-0.3-0.7-0.4-1-0.4h-1.7v5h0.6v-1.9h0.8l1,1.9h0.8l-1.3-2.1c0.2,0,0.4-0.2,0.6-0.4c0.2-0.2,0.2-0.5,0.2-0.8&#xD;&#xA;		C164.5,62.8,164.4,62.3,164.1,61.9"/>
</g>
<g>
</g>
<g>
</g>
<g>
</g>
<g>
</g>
<g>
</g>
<g>
</g>
<g>
</g>
<g>
</g>
<g>
</g>
<g>
</g>
<g>
</g>
<g>
</g>
<g>
</g>
<g>
</g>
<g>
</g>
</svg>