<svg xmlns="http://www.w3.org/2000/svg" xmlns:xlink="http://www.w3.org/1999/xlink" id="Layer_1" x="0px" y="0px" viewBox="0 0 64 64" style="enable-background:new 0 0 64 64;"><style type="text/css">	.st0{fill:none;stroke:#2D2D2D;stroke-width:2.5;stroke-linecap:round;stroke-linejoin:round;stroke-miterlimit:10;}</style><g id="workflow"><g><path class="st0" d="M57.2,21.1c1.2,3.1,1.8,6.5,1.8,10c0,15.6-12.6,28.2-28.2,28.2c-9.9,0-18.5-5.1-23.5-12.7"></path><path class="st0" d="M54.4,15.7C49.3,8,40.7,2.9,30.8,2.9C15.3,2.9,2.7,15.5,2.7,31.1c0,3.5,0.6,6.9,1.8,10"></path><polyline class="st0" points="7.2,52 7.2,46.5 12.7,46.5"></polyline><polyline class="st0" points="54.5,10.2 54.5,15.7 49,15.7"></polyline></g><g><path class="st0" d="M49.9,27.5h-1.3c-0.4,0-0.7-0.2-0.8-0.6l-2-4.8c-0.1-0.3-0.1-0.7,0.2-1l0.9-0.9c0.4-0.4,0.4-0.9,0-1.3L43,15&#13;&#10;   c-0.4-0.4-0.9-0.4-1.3,0L40.8,16c-0.3,0.3-0.7,0.3-1,0.2l-4.8-2c-0.3-0.1-0.6-0.5-0.6-0.8V12c0-0.5-0.4-0.9-0.9-0.9h-5.5&#13;&#10;   c-0.5,0-0.9,0.4-0.9,0.9v1.3c0,0.4-0.2,0.7-0.6,0.8l-4.8,2c-0.3,0.1-0.7,0.1-1-0.2L19.9,15c-0.4-0.4-0.9-0.4-1.3,0l-3.9,3.9&#13;&#10;   c-0.4,0.4-0.4,0.9,0,1.3l0.9,0.9c0.3,0.3,0.3,0.7,0.2,1l-2,4.8c-0.1,0.3-0.5,0.6-0.8,0.6h-1.3c-0.5,0-0.9,0.4-0.9,0.9v5.5&#13;&#10;   c0,0.5,0.4,0.9,0.9,0.9H13c0.4,0,0.7,0.2,0.8,0.6l2,4.8c0.1,0.3,0.1,0.7-0.2,1L14.8,42c-0.4,0.4-0.4,0.9,0,1.3l3.9,3.9&#13;&#10;   c0.4,0.4,0.9,0.4,1.3,0l0.9-0.9c0.3-0.3,0.7-0.3,1-0.2l4.8,2c0.3,0.1,0.6,0.5,0.6,0.8v1.3c0,0.5,0.4,0.9,0.9,0.9h5.5&#13;&#10;   c0.5,0,0.9-0.4,0.9-0.9v-1.3c0-0.4,0.2-0.7,0.6-0.8l4.8-2c0.3-0.1,0.7-0.1,1,0.2l0.9,0.9c0.4,0.4,0.9,0.4,1.3,0l3.9-3.9&#13;&#10;   c0.4-0.4,0.4-0.9,0-1.3L46,41.1c-0.3-0.3-0.3-0.7-0.2-1l2-4.8c0.1-0.3,0.5-0.6,0.8-0.6h1.3c0.5,0,0.9-0.4,0.9-0.9v-5.5&#13;&#10;   C50.8,27.9,50.4,27.5,49.9,27.5z"></path><circle class="st0" cx="30.8" cy="31.1" r="9.1"></circle></g></g><g></g><g></g><g></g><g></g><g></g><g></g><g></g><g></g><g></g><g></g><g></g><g></g><g></g><g></g><g></g></svg>