<?xml version="1.0" encoding="utf-8"?>
<svg xmlns="http://www.w3.org/2000/svg" xmlns:xlink="http://www.w3.org/1999/xlink" version="1.1" id="Layer_1" x="0px" y="0px" viewBox="0 0 215 70" style="enable-background:new 0 0 215 70;">
<style type="text/css">
	.st0{fill:#00A2FF;}
	.st1{fill:#FFFFFF;}
	.st2{fill:#F45D48;}
</style>
<path class="st0" d="M389.6,576.8c0,46.4-37.6,84-84,84c-46.4,0-84-37.6-84-84c0-46.4,37.6-84,84-84&#xD;&#xA;	C352,492.8,389.6,530.4,389.6,576.8z"/>
<path class="st1" d="M261.5,554c0,10.1,8.2,18.4,18.4,18.4c10.1,0,18.4-8.2,18.4-18.4c0-10.1-8.2-18.4-18.4-18.4&#xD;&#xA;	C269.7,535.7,261.5,543.9,261.5,554z M273.5,554c0-3.5,2.9-6.4,6.4-6.4c3.5,0,6.4,2.9,6.4,6.4c0,3.5-2.9,6.4-6.4,6.4&#xD;&#xA;	C276.3,560.4,273.5,557.5,273.5,554z M313,585.5c0,10.1,8.2,18.4,18.4,18.4c10.1,0,18.4-8.2,18.4-18.4c0-10.1-8.2-18.4-18.4-18.4&#xD;&#xA;	C321.2,567.2,313,575.4,313,585.5z M325,585.5c0-3.5,2.9-6.4,6.4-6.4c3.5,0,6.4,2.9,6.4,6.4c0,3.5-2.9,6.4-6.4,6.4&#xD;&#xA;	C327.8,591.9,325,589,325,585.5z M307.4,606.6c-4,1.5-35,14.3-35,14.3s-0.9-33.5-1.1-37.8c-0.2-4.3,3-4.8,5.4-1.9l8.2,9.6l37.9-58.3&#xD;&#xA;	h14.3L295,597.4l12,3.6C310.6,601.9,311.4,605.1,307.4,606.6z"/>
<g>
	<path class="st2" d="M176.9,11c-11.1,0-20.1,9-20.1,20.1c0,11.1,9,20.1,20.1,20.1c11,0,20-9,20-20.1C196.9,20,187.9,11,176.9,11&#xD;&#xA;		L176.9,11z M176.9,41.6c-5.8,0-10.5-4.7-10.5-10.6s4.7-10.6,10.5-10.6c5.8,0,10.5,4.7,10.5,10.6C187.4,36.9,182.6,41.6,176.9,41.6&#xD;&#xA;		L176.9,41.6z M117.9,27l-3.5-1.8c-1.5-0.7-2.5-1.3-2.9-1.8c-0.4-0.4-0.6-0.9-0.6-1.4c0-0.7,0.3-1.3,0.9-1.7&#xD;&#xA;		c0.6-0.4,1.4-0.7,2.5-0.7c2,0,4.1,1.2,6.6,3.6l5.9-5.9c-1.5-2-3.4-3.6-5.5-4.7c-2.1-1.1-4.6-1.6-7-1.6c-3.6,0-6.6,1.1-8.9,3.2&#xD;&#xA;		s-3.5,4.7-3.5,7.7c0,4.7,3.1,8.6,9.2,11.7l3.2,1.6c2.8,1.4,4.1,2.8,4.1,4.3c0,0.8-0.4,1.5-1.1,2.1c-0.8,0.6-1.8,0.9-3,0.9&#xD;&#xA;		c-1.2,0-2.5-0.4-4-1.2c-1.5-0.8-2.8-1.9-3.9-3.2l-5.9,6.4c3.3,4.4,7.7,6.6,13.3,6.6c4.2,0,7.5-1.1,10-3.4c2.5-2.3,3.7-5.1,3.7-8.5&#xD;&#xA;		c0-2.6-0.7-4.8-2.1-6.7C124.1,30.7,121.5,28.8,117.9,27L117.9,27z M58.4,46.8V11.7h-9.5v2.4c-3.2-2.1-6.9-3.2-10.7-3.2&#xD;&#xA;		c-11,0-20,9-20,20.1c0,11.1,9,20.1,20,20.1c3.8,0,7.4-1,10.6-3.1c0,0.3,0,0.6,0,0.8c0,5.8-4.7,10.6-10.5,10.6c-2,0-3.9-0.6-5.6-1.6&#xD;&#xA;		L28,66.1C31.1,68,34.6,69,38.3,69c11.1,0,20.2-9,20.2-20.1C58.4,48.5,58.4,47.2,58.4,46.8L58.4,46.8z M38.1,41.6&#xD;&#xA;		c-5.8,0-10.5-4.7-10.5-10.6s4.7-10.6,10.5-10.6s10.5,4.7,10.5,10.6S43.9,41.6,38.1,41.6L38.1,41.6z M96.3,11.7h-9.6v19.1&#xD;&#xA;		c0,2.7,0,7.4-2,9.4c-1,1-2,1.8-4.2,1.8c-2.2,0-3.2-0.9-4.2-1.8c-2-2-2-6.7-2-9.4V11.7h-9.5v19.1c0,3.9-0.1,11.2,4.7,16.1&#xD;&#xA;		c2.8,2.8,6.1,4.3,11,4.3c4.9,0,8.2-1.4,11-4.3c4.8-4.9,4.7-12.2,4.7-16.1L96.3,11.7z M150.4,39.9c-0.8,0.6-2.6,1.9-4.7,1.6&#xD;&#xA;		c-1.7-0.2-3.1-1.5-3.3-5.7V19.9h11.2v-8.2h-11.2V1h-9.5v2.1l0,0v31.4c0,5,1.3,16.6,12.9,16.6c5.9-0.1,9.4-3.3,10.9-4.5l0.2-0.1&#xD;&#xA;		l-5.7-7.1C151.1,39.4,150.7,39.8,150.4,39.9L150.4,39.9z"/>
</g>
<g>
</g>
<g>
</g>
<g>
</g>
<g>
</g>
<g>
</g>
<g>
</g>
<g>
</g>
<g>
</g>
<g>
</g>
<g>
</g>
<g>
</g>
<g>
</g>
<g>
</g>
<g>
</g>
<g>
</g>
</svg>