<svg width="64" height="64" viewBox="0 0 64 64" fill="none" xmlns="http://www.w3.org/2000/svg">
<path d="M17.9355 33.3675H19.8686C19.8686 28.9 23.5056 25.2558 27.9803 25.2558V23.3227C22.4389 23.3227 17.9355 27.826 17.9355 33.3675Z" fill="#1E3E37"/>
<path d="M31.5881 55.1609C20.9204 55.1609 12.2431 46.4836 12.2431 35.8159C12.2431 30.4463 14.6057 25.5134 19.4742 20.7236L31.5809 8.60975L28.3448 11.8458C30.013 10.1777 32.6334 10.056 34.4447 11.4664L43.6805 20.7022C48.6277 25.8785 50.9259 30.6754 50.9259 35.8159C50.9259 46.4836 42.2486 55.1609 31.5809 55.1609M46.4656 18.0173L34.323 5.87482H28.8532L16.7536 17.9744C11.1119 23.5158 8.37695 29.358 8.37695 35.8159C8.37695 48.6171 18.794 59.027 31.5881 59.027C44.3821 59.027 54.7992 48.6099 54.7992 35.8159C54.7992 29.6158 52.1502 23.9597 46.4656 18.0173Z" fill="#1E3E37"/>
</svg>
