<svg width="64" height="64" viewBox="0 0 64 64" fill="none" xmlns="http://www.w3.org/2000/svg">
<path d="M54.1591 56.928H9.85543C7.68667 56.928 5.93858 55.1726 5.93858 53.0039V30.308L10.9942 35.3636H20.4454V29.1185L26.6905 35.3636H36.1127V29.0895L42.3869 35.3636H51.6132L52.984 7.91682H56.9082L58.0106 53.7727C57.6552 55.5716 56.0667 56.928 54.1664 56.928M60.825 7.91682L56.9009 4H52.9768L49.06 7.91682L47.8849 31.4396V30.6562C47.8849 32.6654 46.8767 33.9782 44.7007 32.1359L36.1634 23.5987L36.1054 23.6567V23.5987L32.1886 27.5227V31.0551C32.058 32.854 31.0135 33.8839 28.9246 32.0561L20.4671 23.5987L20.4381 23.6277V23.5987L16.5213 27.5227V30.6562C16.5213 32.7307 15.4405 34.0725 13.0977 31.9255L4.7708 23.5987L2.029 26.3404H2.01452V26.3549L2 26.3694L2.01452 26.384V53.1997L5.93858 56.928L9.85543 60.8448H54.1591L58.0759 56.928L62 53.1997L60.825 7.91682Z" fill="#1E3E37"/>
</svg>
