<?xml version="1.0" encoding="utf-8"?>
<svg xmlns="http://www.w3.org/2000/svg" version="1.0" width="162.000000pt" height="67.000000pt" viewBox="0 0 162.000000 67.000000" preserveAspectRatio="xMidYMid meet">

<g transform="translate(0.000000,67.000000) scale(0.100000,-0.100000)" fill="#000000" stroke="none">
<path d="M413 589 l-33 -10 0 -89 c0 -50 -2 -90 -5 -90 -3 0 -19 10 -36 22&#xA;-69 51 -194 15 -235 -69 -30 -60 -26 -149 9 -202 52 -79 159 -103 228 -52 35&#xA;26 39 26 39 1 0 -17 7 -20 45 -20 l45 0 -2 257 c-2 160 -7 257 -13 259 -5 1&#xA;-25 -2 -42 -7z m-76 -245 c12 -8 28 -32 34 -54 23 -76 -35 -148 -109 -137 -68&#xA;11 -105 79 -80 145 24 64 93 84 155 46z"/>
<path d="M1343 579 l-33 -10 0 -244 0 -245 45 0 45 0 0 255 c0 198 -3 255 -12&#xA;254 -7 0 -28 -5 -45 -10z"/>
<path d="M647 440 c-80 -15 -137 -91 -137 -184 0 -104 61 -172 163 -183 63 -6&#xA;123 19 156 66 31 43 27 51 -24 51 -25 0 -45 -4 -45 -10 0 -5 -14 -17 -31 -25&#xA;-25 -13 -37 -14 -65 -5 -36 12 -64 43 -64 72 0 16 12 18 136 18 l137 0 -7 46&#xA;c-15 113 -104 175 -219 154z m94 -83 c21 -16 40 -53 32 -61 -11 -11 -173 -7&#xA;-173 5 0 21 22 50 43 59 32 13 79 11 98 -3z"/>
<path d="M1047 440 c-81 -15 -137 -88 -137 -179 0 -109 59 -177 163 -188 63&#xA;-6 123 19 156 66 31 43 27 51 -24 51 -25 0 -45 -4 -45 -10 0 -5 -14 -17 -31&#xA;-25 -25 -13 -37 -14 -65 -5 -36 12 -64 43 -64 72 0 16 12 18 136 18 l137 0 -7&#xA;46 c-15 113 -104 175 -219 154z m94 -83 c21 -16 40 -53 32 -61 -11 -11 -173&#xA;-7 -173 5 0 21 22 50 43 59 32 13 79 11 98 -3z"/>
<path d="M1477 182 c-26 -28 -21 -69 9 -88 33 -22 75 -9 88 28 21 59 -56 106&#xA;-97 60z"/>
</g>
</svg>