<?xml version="1.0" encoding="utf-8"?>
<svg xmlns="http://www.w3.org/2000/svg" id="thumb_up_black_24dp_1_" data-name="thumb_up_black_24dp (1)" width="40" height="40" viewBox="0 0 40 40">
  <path id="Path_3" data-name="Path 3" d="M0,0H40V40H0ZM0,0H40V40H0Z" fill="none"/>
  <path id="Path_4" data-name="Path 4" d="M14.333,34.333h15A3.311,3.311,0,0,0,32.4,32.3l5.033-11.75a3.293,3.293,0,0,0,.233-1.217V16a3.343,3.343,0,0,0-3.333-3.333H23.817L25.4,5.05l.05-.533a2.509,2.509,0,0,0-.733-1.767L22.95,1,11.967,11.983A3.312,3.312,0,0,0,11,14.333V31A3.343,3.343,0,0,0,14.333,34.333Zm0-20L21.567,7.1,19.333,16h15v3.333L29.333,31h-15ZM1,14.333H7.667v20H1Z" transform="translate(0.667 0.667)" fill="#707070"/>
</svg>