<?xml version="1.0" encoding="utf-8"?>
<svg xmlns="http://www.w3.org/2000/svg" xmlns:xlink="http://www.w3.org/1999/xlink" version="1.1" id="Layer_1" x="0px" y="0px" viewBox="0 0 215 70" style="enable-background:new 0 0 215 70;">
<style type="text/css">
	.st0{fill:#014296;}
</style>
<g transform="translate(0.000000,381.000000) scale(0.100000,-0.100000)">
	<path class="st0" d="M518.5,3784.1c-8.4-1.2-16.4-3.1-18-4.8c-1.4-1.4-4.6-2.6-7-2.6c-5.3,0-21.2-8.2-38.5-20&#xD;&#xA;		c-14.9-9.9-40.4-36.6-40.4-41.9c0-1.7-1-3.1-2.4-3.1c-1.2,0-2.9-2.6-3.8-6c-0.7-3.1-2.9-7-4.8-8.7c-1.9-1.4-3.4-5.1-3.4-7.9&#xD;&#xA;		s-1.2-6.5-2.6-7.9c-4.6-4.6-7.9-26.9-7.9-52.4c0-38,6-58.9,26-90.2c7-10.8,30.8-36.1,33.9-36.1c1,0,5.8-3.1,10.8-7.2&#xD;&#xA;		c5.1-3.8,10.8-7.2,12.7-7.2c1.9,0,4.8-1.7,6.5-3.6s5.1-3.6,7.7-3.6c2.4,0,7-1.4,9.9-3.4c15.6-9.9,98.1-9.4,108,0.5&#xD;&#xA;		c1.7,1.7,5.3,2.9,8.2,2.9s6.5,1.7,8.2,3.6s4.6,3.6,6.5,3.6c1.9,0,11.8,6.5,22.1,14.2c26,19.7,43.8,44.5,55.6,77.2&#xD;&#xA;		c7.7,21.4,8.2,77.2,1,92.4c-1.9,3.8-3.4,8.7-3.4,10.3c0,3.1-3.6,11.3-9.9,22.4c-1.2,1.9-3.1,5.8-4.3,8.4&#xD;&#xA;		c-2.2,5.3-27.7,32-39.9,42.1c-8.2,7-36.1,21.6-40.7,21.6c-1.7,0-6.3,1.7-10.1,3.6C589.7,3784.4,540.7,3786.8,518.5,3784.1z&#xD;&#xA;		 M579.9,3722.3c5.1-2.2,10.8-4.8,12.7-6c1.9-1.2,5.8-3.1,8.4-4.3c14.4-6.5,31.8-30.1,40.2-54.4c5.3-15.2,5.5-44,0.7-55.8&#xD;&#xA;		c-1.9-4.6-3.6-10.1-3.6-12c0-4.6-15.2-27.4-24.3-36.3c-4.1-3.8-14.4-10.6-23.1-14.9c-14.7-7-17.6-7.7-40.4-7.7&#xD;&#xA;		c-22.9,0-26,0.7-39.9,7.7s-35.4,25.3-39,33.7c-1,1.9-2.6,5.3-3.8,7.2c-8.2,14-10.1,23.6-10.3,48.8c0,19.5,1,28.4,3.8,34.4&#xD;&#xA;		c2.2,4.6,5.8,12,8.2,16.8c4.6,9.6,22.9,29.1,30.3,32.5c2.9,1.2,6.7,3.1,8.7,4.3C526.5,3726.9,562.1,3729.8,579.9,3722.3z"/>
	<path class="st0" d="M869.7,3783.9c-8.4-1-16.4-2.9-18-4.6c-1.4-1.4-4.8-2.6-7.5-2.6c-2.9-0.2-9.4-2.9-14.7-6&#xD;&#xA;		c-5.3-3.4-11.3-6.7-13.2-7.5c-5.8-2.6-33.7-30.5-33.7-33.9c0-1.7-0.7-3.1-1.9-3.1c-1.4,0-5.1-6.7-14.9-30.1&#xD;&#xA;		c-1.7-3.8-4.1-13.2-5.5-20.4c-2.6-15.9-6-195.1-3.6-198.4c1-1.4,14.7-2.4,33.7-2.2h32l0.5,80.6c0.5,94.1,1.4,111.1,8.4,126.5&#xD;&#xA;		c6.3,14.2,26.7,34.4,39.4,39c13.2,5.1,54.6,4.8,67.1-0.2c9.9-3.8,32.5-22.9,32.5-26.9c0-1.2,1.4-4.1,3.1-6&#xD;&#xA;		c8.9-10.6,9.9-21.4,11.3-117.9l1.2-95h32.2h32.5l-0.7,99.8c-0.5,105.8-0.5,106.1-13,134.5c-8.4,19.2-30.5,45.7-45.2,54.1&#xD;&#xA;		c-7.9,4.6-25,12.5-33.4,15.6C940.2,3785.6,902.2,3787.5,869.7,3783.9z"/>
	<path class="st0" d="M1232.5,3784.1c-12.5-1.9-26-5.8-33.7-10.1c-1.9-1-8.4-4.3-14.4-7.2c-6-3.1-11.8-6.7-13.2-8.2&#xD;&#xA;		c-1.2-1.4-7-6.3-12.5-10.6c-11.5-8.9-30.1-32.7-35.8-45.9c-0.7-1.9-2.9-6.7-4.6-10.8c-10.8-25-10.6-23.6-11.1-182.3&#xD;&#xA;		c-0.2-83,0.5-151.8,1.4-152.7c1.7-1.7,30.8-1.2,45,1c7,1,10.1,3.4,14.2,9.6c5.1,8.2,5.1,10.1,4.1,75c-0.7,36.6-1.7,68.3-2.2,70.2&#xD;&#xA;		c-1.7,6.3,8.7,5.8,11.5-0.7c3.1-7,20-20.7,32-26c20.7-9.4,26.2-10.3,58.7-11.3c26.7-0.5,35.8,0,45.7,3.4&#xD;&#xA;		c37.3,12.5,62.8,31,83.9,60.6c4.8,6.7,8.9,14,8.9,15.9c0,1.7,1.7,4.6,3.6,6.3c1.9,1.7,3.6,5.1,3.6,7.7c0,2.4,1.7,7.7,3.6,11.5&#xD;&#xA;		c4.6,8.9,7.2,54.1,4.1,75.8c-2.2,16.1-6,29.6-10.3,37.3c-2.2,3.6-2.6,4.6-5.5,12c-0.7,1.9-6,10.1-11.8,18&#xD;&#xA;		c-18,24.8-48.8,46.2-82.3,57.5C1301.5,3784.6,1252.9,3787,1232.5,3784.1z M1294.3,3722.3c34.6-14.9,51.7-32.5,61.8-63.5&#xD;&#xA;		c6.7-21.2,3.8-59.9-6-77c-1.2-1.9-3.1-5.8-4.3-8.4c-4.3-9.6-32.5-34.9-38.5-34.9c-1.7,0-6.3-1.7-10.3-3.8c-10.1-5.3-52.4-5.3-63,0&#xD;&#xA;		c-4.1,1.9-9.1,4.1-11.1,4.8c-6.5,2.4-12.7,7.5-23.8,18.8c-10.6,10.8-14.2,16.6-22.9,36.3c-5.1,12-5.3,55.3-0.2,64.2&#xD;&#xA;		c1.9,3.4,3.4,8.4,3.6,11.5c0,2.9,1,5.3,2.2,5.3c1.2,0,3.1,2.4,4.1,5.5c1.9,6,24.8,30.3,28.9,30.5c1.2,0,3.6,1.2,5.3,2.9&#xD;&#xA;		C1230.3,3724.9,1276.7,3729.8,1294.3,3722.3z"/>
	<path class="st0" d="M1599.3,3783.9c-7.9-1-18.3-3.1-22.9-4.8c-14-5.3-40.7-19-47.6-24.8c-9.6-7.7-31.8-30.1-31.8-31.8&#xD;&#xA;		c0-0.7-2.6-5.1-5.8-9.1c-6.3-8.7-13-23.3-19-41.4c-5.8-16.8-5.8-72.2,0-89c6.7-20.7,13.2-33.2,25-49.3&#xD;&#xA;		c19.5-26.7,38.7-40.7,76.7-55.6c11.8-4.6,79.9-4.6,91.4,0c23.1,9.4,31,14.2,44,27.2c7.9,7.5,15.4,13.2,16.6,12.5&#xD;&#xA;		c1.2-0.7,1.4-5.5,0.7-10.8c-2.6-14.7,0.5-23.3,9.1-27.2c8.7-3.6,47.9-6.5,52-3.8c3.6,1.9,3.6,148.9,0.2,166&#xD;&#xA;		c-1.2,6-2.2,14.7-2.4,19.2c0,4.6-1.7,11.5-3.6,15.4c-1.9,3.6-3.6,8.4-3.6,10.1c0,7.9-20.9,41.1-34.9,55.3&#xD;&#xA;		c-14,14.2-37.5,28.4-61.3,37C1664.2,3785.6,1630.5,3787.5,1599.3,3783.9z M1657.5,3722.3c20.4-8.9,25.7-12.3,36.6-22.6&#xD;&#xA;		c6.3-6,12-12.5,13-14.4s2.6-5.3,3.6-7.2c10.1-17.6,11.3-22.6,11.3-51.5c0-23.8-0.7-30.3-4.3-35.1c-2.2-3.1-4.1-7.9-4.1-10.3&#xD;&#xA;		c0-6.7-35.6-40.9-46.9-44.7c-5.3-1.9-21.9-3.8-36.6-4.3c-21.9-0.7-28.1-0.2-32.5,2.6c-2.9,2.2-7,3.8-8.7,3.8&#xD;&#xA;		c-3.4,0-19,11.3-28.4,20.4c-7.2,7-18.5,27.2-22.1,39.7c-7.5,26.2-5.5,49.1,6.3,74.6c9.4,20.4,32,40.7,53.4,48.3&#xD;&#xA;		C1613,3727.1,1645.7,3727.3,1657.5,3722.3z"/>
	<path class="st0" d="M1801.1,3778.1c-1-2.2,0.2-6,2.4-8.4c2.2-2.4,3.8-5.3,3.8-6.7c0-1.4,1.7-6,3.6-10.1s5.3-10.8,7.2-14.9&#xD;&#xA;		c1.9-4.1,3.6-9.1,3.6-11.5c0-2.2,1.7-6.3,3.6-8.9c1.9-2.4,3.6-6.5,3.6-8.9c0-2.6,1.4-7.5,3.4-10.8c5.8-11.5,11.1-24.5,11.1-28.1&#xD;&#xA;		c0-1.7,1.4-6.3,3.4-10.1c6.3-12.5,11.1-25,11.1-28.4c0-1.7,1.7-6.7,3.8-11.3c9.1-18.3,10.6-21.6,10.6-25.7c0-2.2,1.7-6.3,3.6-8.9&#xD;&#xA;		c1.9-2.4,3.6-6.7,3.6-9.6c0-2.6,1.7-7,3.6-9.6c1.9-2.4,3.6-6.7,3.6-9.6c0-2.6,1.7-7,3.6-9.6c1.9-2.4,3.6-6.7,3.6-9.6&#xD;&#xA;		c0-2.6,1.7-7,3.6-9.6c1.9-2.4,3.6-6.5,3.6-8.9c0-2.6,1.4-7.5,3.4-10.8c6-11.5,13.5-31.3,13.5-36.1c0-2.4-2.4-7.2-5.5-10.6&#xD;&#xA;		c-5.5-5.8-32.7-27.2-41.4-32.5c-8.7-5.1-37.8-18.8-45-20.9c-5.3-1.7-5.5-9.4-0.7-13.5c1.9-1.7,3.6-5.1,3.6-7.2&#xD;&#xA;		c0-7.5,12-28.6,17.1-30.1c6-1.9,20.4,0.5,28.6,4.8c3.4,1.7,10.8,5.5,16.8,8.4c6,2.9,14.2,7.2,18,9.9c4.1,2.4,8.9,5.3,10.8,6.3&#xD;&#xA;		c14.7,6.5,67.4,58.9,67.4,66.9c0,1.2,1.7,3.8,3.6,6c4.8,5.3,20.2,33.7,26.2,48.1c0.7,1.9,2.4,5.3,3.4,7.2c6,10.6,10.1,20,10.1,22.9&#xD;&#xA;		c0,1.7,1.4,6.3,3.4,10.1c1.9,3.6,5.3,11.1,7.5,16.4c2.4,5.3,5.8,12.7,7.5,16.4c1.9,3.8,3.4,8.9,3.4,11.3c0,2.2,1.7,5.5,3.6,7.2&#xD;&#xA;		c1.9,1.7,3.6,5.1,3.6,7.2c0,2.4,1.9,7.9,4.1,12.5c2.2,4.3,5.3,10.8,7.2,14.4c1.7,3.4,3.1,8.4,3.1,11.1c0,2.6,1.7,6,3.6,7.7&#xD;&#xA;		c1.9,1.7,3.6,5.1,3.6,7.2c0,2.4,1.4,7.5,3.4,11.3c1.9,3.6,5.3,11.1,7.5,16.4c2.4,5.3,5.8,12.7,7.5,16.4c1.9,3.8,3.4,8.4,3.4,10.1&#xD;&#xA;		c0,1.7,1.9,6.7,4.1,11.3c2.2,4.3,5.3,10.8,7.2,14.4c1.7,3.4,3.1,7.9,3.1,9.9s1.7,4.8,3.6,6.5c1.9,1.7,3.6,4.6,3.6,6.7&#xD;&#xA;		c0,1.9,1.7,5.5,3.8,7.9c8.4,9.4,3.6,10.8-32.7,10.1c-36.8-0.7-43.3-2.6-43.3-14c0-2.6-1.7-7.2-3.6-9.9c-1.9-2.4-3.6-6.5-3.6-8.7&#xD;&#xA;		s-1.7-7.2-3.6-11.3c-1.9-4.1-5.3-10.8-7.2-14.9c-1.9-4.1-3.6-8.9-3.6-10.6s-1.9-6.7-4.1-11.3c-2.2-4.3-5.3-10.8-7.2-14.4&#xD;&#xA;		c-1.7-3.4-3.1-7.9-3.1-9.9c0-2.2-1.4-6.7-3.4-10.6c-1.9-3.6-5.3-11.1-7.5-16.4c-2.4-5.3-5.8-12.7-7.5-16.4&#xD;&#xA;		c-1.9-3.8-3.4-8.4-3.4-10.1s-1.4-6.3-3.4-10.1c-1.9-3.6-5.3-11.5-7.7-17.6c-2.2-6-5.5-14.2-7.2-18.5c-1.9-4.1-3.4-9.1-3.4-11.1&#xD;&#xA;		s-1.7-7.5-3.6-12.3c-5.1-12.3-11.8-11.1-12.7,2.2c-0.5,5.3-1.9,10.6-3.1,12c-1.2,1.2-2.2,4.3-2.2,6.7c0,2.4-1.4,7.9-3.4,12&#xD;&#xA;		c-1.9,4.3-3.8,9.9-4.6,12.5c-0.7,2.6-3.6,10.8-6.5,18c-2.9,7.2-5.8,15.9-6.5,19.2c-0.7,3.4-2.9,8.2-4.6,10.8&#xD;&#xA;		c-1.9,2.6-3.4,7-3.4,9.6s-1.7,7-3.6,9.4c-1.9,2.6-3.6,7-3.6,9.9s-1.7,7.2-3.6,9.9c-1.9,2.4-3.6,6.7-3.6,9.6c0,2.6-1.7,7-3.6,9.6&#xD;&#xA;		c-1.9,2.4-3.6,6.7-3.6,9.6c0,2.6-1.7,7-3.6,9.6c-1.9,2.4-3.6,6.7-3.6,9.6c0,2.6-1.7,7-3.6,9.6c-1.9,2.4-3.6,7-3.6,9.6&#xD;&#xA;		c0,2.9-2.2,10.1-4.8,16.4l-5.1,11.1h-26c-14.4,0-31,0.7-37,1.4C1804.7,3781.9,1802.3,3781.5,1801.1,3778.1z"/>
	<path class="st0" d="M127.7,3738.9l-8.9-8.7v-40.4v-40.4l10.6-8.4l10.3-8.7h41.6c38,0,42.3,0.5,49.8,5.1&#xD;&#xA;		c13.7,8.4,16.6,18,16.1,53.9c-0.2,34.6-2.6,42.6-15.2,51.5c-6.5,4.6-10.3,5.1-51.2,5.1h-44.5L127.7,3738.9z"/>
	<path class="st0" d="M27.6,3600.8l-9.9-9.9v-46.9c0-44.5,0.2-46.9,5.5-53.9c8.9-12.3,17.1-14.2,60.4-14s49.1,1.9,57.2,16.4&#xD;&#xA;		c4.1,7,4.6,13.7,4.6,51c0,47.1-1.4,52.9-14.4,62.1c-6.5,4.6-10.3,5.1-50.3,5.1H37.5L27.6,3600.8z"/>
	<path class="st0" d="M241.4,3601.1c-20.4-0.7-39.4-2.2-42.1-3.4s-7.2-5.1-10.1-8.4c-5.1-6-5.3-8.4-5.3-50.8&#xD;&#xA;		c0-42.6,0.2-44.7,5.3-50.5c9.1-10.6,16.1-12,57-12c60.4,0,62.8,2.4,63.5,61.3c0.5,43.3-2.4,53.4-17.8,60.6&#xD;&#xA;		C282.6,3602.3,280.9,3602.3,241.4,3601.1z"/>
	<path class="st0" d="M334.5,3249.4c-2.6-1.4,4.3-17.1,15.4-34.4c2.4-3.8,5.1-8.9,6-10.8c0.7-1.9,2.4-5.3,3.6-7.2&#xD;&#xA;		c7.9-13.2,10.6-22.4,11.8-40.9l1.2-20.4l8.2-0.7c4.6-0.5,10.8-0.2,14,0.7c5.5,1.2,5.8,1.9,5.3,22.4c-0.5,18.8,0.2,22.1,5.8,31.8&#xD;&#xA;		c3.6,6,7,12.5,7.9,14.4c0.7,1.9,2.4,5.3,3.6,7.2c1.2,1.9,2.9,5.3,3.8,7.2s4.6,8.9,8.4,15.2c3.6,6.3,6.7,12.5,6.7,13.7&#xD;&#xA;		c0,1.4-6.3,2.4-14,2.4c-15.2,0-22.1-4.1-22.1-13.5c0-2.4-1.7-6.7-3.6-9.1c-1.9-2.6-3.6-7.2-3.6-9.9c0-6.3-8.2-14.4-11.8-12&#xD;&#xA;		c-1.4,0.7-2.6,3.4-2.6,5.5c0,2.2-1.7,7.2-3.6,11.1c-1.9,3.6-3.6,8.2-3.6,9.9c0,1.9-1.9,6.5-4.1,10.3c-3.8,6.5-5.8,7.5-17.1,8.2&#xD;&#xA;		C342.9,3250.8,336,3250.4,334.5,3249.4z"/>
	<path class="st0" d="M126,3194.8c0-61.8-0.2-61.1,17.3-59.9l10.3,0.7l0.7,21.2l0.7,20.9h17.6h17.8l11.1,10.8&#xD;&#xA;		c10.3,9.9,11.1,11.5,11.1,22.6c0,15.4-6,25.5-19.2,33c-9.1,5.3-13,5.8-38.7,5.8H126V3194.8z M180.8,3223.4&#xD;&#xA;		c5.8-5.5,6.5-8.9,3.1-17.6c-1.9-4.6-4.6-6-14-7.5c-14.4-1.9-16.6,0.7-15.6,17.6l1,12.3h10.1&#xD;&#xA;		C172.4,3228.2,177.2,3226.5,180.8,3223.4z"/>
	<path class="st0" d="M256.8,3245.8c-0.7-2.4-2.6-8.2-4.3-12.7c-7.2-19.7-9.1-25.5-10.3-31.3c-0.7-3.4-2.9-8.2-4.6-10.8&#xD;&#xA;		c-1.9-2.6-3.4-6.5-3.4-8.7c0-2.4-1.7-7.5-3.6-11.5s-5.3-10.8-7.2-14.9c-1.9-4.1-3.6-10.6-3.6-14.4c0-6.3,0.7-7,8.2-7&#xD;&#xA;		c11.8,0,20.7,3.8,20.7,9.1c0,9.9,5.8,13.5,23.1,13.7c20.2,0.2,24.3-1.4,26.9-11.3c2.2-8.2,7-10.8,21.6-11.3c7-0.2,7.7,0.5,7.7,6.7&#xD;&#xA;		c0,3.8-1.4,10.1-3.4,14c-1.9,3.6-5.3,11.5-7.5,17.6c-2.2,6-5.5,14.4-7.5,18.8c-1.9,4.3-3.4,9.9-3.4,12c0,2.4-1.2,5.5-2.6,7&#xD;&#xA;		c-1.4,1.4-3.4,6.3-4.6,10.6c-1.2,4.6-3.6,12.5-5.5,17.8l-3.6,9.6l-15.9,0.7C260.4,3249.9,258,3249.4,256.8,3245.8z M278.7,3209.7&#xD;&#xA;		c1-3.8,2.4-8.4,3.6-10.6c3.8-7.2,5.5-21.4,2.6-21.6c-8.7-1-18.8-1.2-21.4-0.2c-3.4,1.2-2.2,14,1.9,21.9c1.2,2.2,2.6,6.7,3.6,10.6&#xD;&#xA;		c0.7,3.6,2.9,6.5,4.8,6.5C275.8,3216.2,278,3213.3,278.7,3209.7z"/>
	<path class="st0" d="M447.3,3248c-0.5-1-1.4-26-1.7-55.6c-0.7-59.4-1-57.7,15.2-57.5c12,0.2,14,4.1,11.8,23.6&#xD;&#xA;		c-1.9,16.1-1.4,21.6,2.6,21.6c4.6,0,11.5-5.1,11.5-8.4c0-3.8,8.2-20.7,14.7-30.1c3.4-5.1,6.3-6.3,16.4-6.7c14.9-0.5,18,3.6,10.1,14&#xD;&#xA;		c-2.6,3.8-5.1,7.7-5.1,8.7c0,0.7-3.1,5.5-7.2,10.6c-7.7,9.9-9.4,16.8-3.6,16.8c1.9,0,7,2.9,10.8,6.7c6.7,6,7.5,7.9,7.5,21.4&#xD;&#xA;		c0.2,27.7-13.7,36.8-55.8,36.8C460.3,3249.9,448.1,3248.9,447.3,3248z M499.8,3223.2c7.7-6,8.2-14.7,1.2-21.6&#xD;&#xA;		c-3.8-3.8-7.2-4.6-16.1-4.1l-11.3,0.7l-0.7,11.8c-0.5,6.5-0.2,13.2,0.5,14.9C475.2,3230.2,492.3,3229,499.8,3223.2z"/>
	<path class="st0" d="M575.8,3245.3c-20.2-10.8-31.3-29.6-31.3-53.2c0-29.8,20.4-52.2,52.2-57c15.2-2.4,41.9,11.5,51,26.7&#xD;&#xA;		c17.3,28.9,7.5,67.4-21.4,82.5C612.8,3251.6,588.3,3251.8,575.8,3245.3z M613.1,3222.5c5.3-2.4,9.9-6.7,13-13.2&#xD;&#xA;		c6-11.8,6.3-19.5,1.2-29.8c-6.7-13.2-12.3-16.8-26.5-17.1c-11.5,0-14,0.7-20.7,7.5c-7,7-7.7,9.1-7.7,23.1c0,11.3,1.2,16.8,4.8,21.4&#xD;&#xA;		C585.4,3225.1,598.9,3228.2,613.1,3222.5z"/>
	<path class="st0" d="M671.3,3248.2c-0.5-1.2,0-14,1.4-28.6c1.7-17.3,1.7-35.4,0.2-51.5c-1.7-17.3-1.4-25.7,0.2-28.1&#xD;&#xA;		c2.2-2.9,8.7-3.6,30.3-3.6c27.2,0,27.4,0,29.6,6c1.4,4.1,1.4,8.4-0.2,12.3c-2.6,5.3-3.6,5.8-18.3,4.6c-13.7-1.2-15.4-0.7-16.4,3.1&#xD;&#xA;		c-0.7,2.6-0.5,22.4,0.5,44.3c0.7,21.9,1,40.4,0.5,41.6c-0.5,1-6.7,1.7-14,1.7S671.8,3249.2,671.3,3248.2z"/>
	<path class="st0" d="M747,3194.1l0.7-56l28.9-1.4c15.9-0.7,30.3-1,32-0.2c2.2,0.7,2.9,4.8,2.4,12.3l-0.7,11.1L793,3159&#xD;&#xA;		c-15.6-0.7-17.6-0.5-17.8,3.6c0,2.4,0,23.1,0.2,45.9l0.2,41.4H761h-14.4L747,3194.1z"/>
	<path class="st0" d="M964,3246.3c-0.7-1.9-0.7-4.6,0-5.8c1-1.4,1.4-22.4,1.2-46.4c0-24.3-0.2-46.7-0.2-49.8s1.4-6.5,3.4-7.7&#xD;&#xA;		c4.8-3.1,20.7-2.6,22.9,1c1,1.4,1.9,12.7,1.9,24.5v21.6l20.9,0.7l20.9,0.7l0.7-24.8l0.7-24.8l8.4-0.2c18.3-0.7,17.6-3.4,17.6,58.2&#xD;&#xA;		v55.1l-13.5,0.7l-13.7,0.7V3227v-23.1l-20.9,0.7l-21.2,0.7l0.7,22.4l0.7,22.1h-14.7C969.3,3249.9,965,3248.9,964,3246.3z"/>
	<path class="st0" d="M1080.9,3249.4c-1-8.2,0-110.9,1-111.9c0.7-0.7,6.5-1.4,12.7-1.7l11.5-0.2v21.4c0,15.2,1,21.9,3.1,22.6&#xD;&#xA;		c4.6,1.4,9.4-3.6,14.9-15.9c7.5-16.1,12.5-25.5,14.9-27.2c1.2-0.7,7.5-1.7,14.2-1.9c15.2-0.5,17.3,3.6,7.9,16.8&#xD;&#xA;		c-3.8,5.3-8.2,11.8-9.6,14.4c-1.7,2.6-4.1,6.3-5.5,7.7c-4.3,4.3-3.1,11.3,1.7,11.3c2.4,0,7.5,3.4,11.3,7.2&#xD;&#xA;		c6.3,6.5,7.2,9.4,7.2,21.2c0,27.2-15.2,36.6-58,36.6C1093.2,3249.9,1080.9,3249.6,1080.9,3249.4z M1135.3,3222&#xD;&#xA;		c4.8-4.6,5.8-7.5,4.6-12.5c-2.2-9.4-7.9-12.7-20.4-12l-10.8,0.7l-0.7,15.2l-0.7,14.9h11.1C1126.9,3228.2,1130.5,3226.8,1135.3,3222&#xD;&#xA;		z"/>
	<path class="st0" d="M1328.4,3248.9c-1.7-1.7-0.5-109.7,1.2-111.4c2.4-2.4,54.8-0.7,64.7,2.2c10.1,3.1,19.5,13.2,22.1,24.3&#xD;&#xA;		c1.9,7.7-2.6,16.4-14,26l-7.5,6.5l7.7,3.8c14.9,7.7,13.2,31.5-3.1,42.8c-9.1,6.3-10.8,6.5-39.9,6.7&#xD;&#xA;		C1343.1,3249.9,1328.9,3249.4,1328.4,3248.9z M1384.2,3222.9c5.8-7,5.8-9.9,0-15.2c-3.1-2.6-9.1-4.3-17.6-4.6l-12.7-0.2l-0.7,9.4&#xD;&#xA;		c-1.2,14.2,0.2,15.9,14.2,15.9C1377,3228.2,1380.6,3227,1384.2,3222.9z M1384.7,3181.6c2.4-1.9,4.1-6.3,4.1-10.8&#xD;&#xA;		c0-9.1-7.2-12.7-23.8-11.8l-11.1,0.7l-0.7,12.7l-0.7,12.5h14C1374.1,3184.9,1382.3,3183.3,1384.7,3181.6z"/>
	<path class="st0" d="M1432.6,3193.1l0.7-56.8h30.8c17.1,0,32,1,33.4,2.4c1.2,1.2,1.9,6.5,1.4,11.5l-0.7,9.4H1479h-19.2l-0.7,12.5&#xD;&#xA;		l-0.7,12.5l18.8,0.7c18.8,0.7,18.8,0.7,19.5,7.7c1.2,9.9-2.6,12.3-20.7,12.3h-16.1v10.8v10.8l16.8,0.2c9.4,0.2,18.3,0.5,20,0.7&#xD;&#xA;		c1.7,0.2,2.9,4.1,2.9,11.1v10.8h-33.7h-33.7L1432.6,3193.1z"/>
	<path class="st0" d="M1518.5,3249.4c0-0.5-0.5-25.3-1-55.3c-0.5-39.2,0-55.3,2.2-56.8c4.1-3.4,20-3.1,22.9,0.5&#xD;&#xA;		c1.9,2.4,1.9,11.5,0,33.7c-3.6,37-1.7,41.1,10.3,22.6c4.6-7,9.1-14.4,9.9-16.4c1-1.9,6.7-11.8,13.2-21.6c10.8-17.1,12-18,22.1-19.5&#xD;&#xA;		c6-1,11.8-0.7,13,0.5c1.2,1.2,2.4,26.9,2.6,57.5l0.7,55.3h-13c-7,0-13.2-1-14-1.9c-0.7-1.2,0.2-14.9,1.9-31&#xD;&#xA;		c2.9-30.5,2.9-34.4-1.7-34.4c-2.6,0-18.5,21.6-18.5,25c0,0.7-3.1,5.8-7,11.5s-9.4,14.9-12.3,20.7c-5.3,10.1-5.5,10.1-18.3,10.1&#xD;&#xA;		C1524.5,3249.9,1518.7,3249.6,1518.5,3249.4z"/>
	<path class="st0" d="M1634.6,3193.1l0.7-56.8h32.2c33.7,0,36.3,0.7,36.3,11.3c0,10.1-3.6,12-23.3,12h-18.8v12v12l15.6,0.5&#xD;&#xA;		c8.7,0,17.1,0.2,18.8,0.5c2.2,0.2,2.9,3.4,2.4,10.6l-0.7,10.1h-18h-18v10.8v10.8h18.5c10.3,0,19.7,1.2,21.2,2.6&#xD;&#xA;		c1.7,1.7,2.4,6.5,1.9,10.8l-0.7,8.2l-34.4,0.7l-34.2,0.7L1634.6,3193.1z"/>
	<path class="st0" d="M1720.7,3249.4c-1.2-7.7,0-110.6,1.2-112.3c2.4-4.1,19.5-3.1,24.1,1.2c2.4,2.4,3.4,6.3,2.6,10.3&#xD;&#xA;		c-6.3,33.2-4.3,37.5,14.4,34.2c15.2-2.9,19.2,0.2,16.8,13l-1.7,9.1l-14-1.4c-7.7-0.5-15.4-0.5-16.8,0.7c-1.9,1-2.6,5.8-2.2,12.3&#xD;&#xA;		l0.7,10.6h20.9c12.3,0,22.1,1.2,23.6,2.6c1.4,1.4,2.4,6.5,1.9,10.8l-0.7,8.2l-35.4,0.7C1736.6,3249.6,1720.7,3249.6,1720.7,3249.4z"/>
	<path class="st0" d="M1804.5,3195.3c-0.5-31,0-56,1.2-57.7c3.6-4.8,22.9-4.1,25,1.2c1.2,2.2,1.4,27.9,0.7,57l-1.2,52.9l-12.5,0.7&#xD;&#xA;		l-12.3,0.7L1804.5,3195.3z"/>
	<path class="st0" d="M1845.1,3248.2c-2.9-2.6-1.9-17.1,1.2-19c1.7-1.2,8.4-1.9,15.2-1.9l12-0.2l-0.7-43.5&#xD;&#xA;		c-1-49.3-0.7-49.8,16.8-48.6l10.3,0.7l0.7,46.4l0.5,46.7l14-1l13.7-0.7l0.7,11.5l0.7,11.3h-41.9&#xD;&#xA;		C1865.5,3249.9,1845.8,3249.2,1845.1,3248.2z"/>
	<path class="st0" d="M1955.8,3243.9c-8.9-6.3-16.1-19-16.1-28.6c0-12.3,20-30.3,33.4-30.3c2.6,0,8.2-1.9,12.7-4.1&#xD;&#xA;		c4.3-2.4,8.2-4.3,8.2-4.3c0.2,0,1.2-2.4,1.9-5.3c1.2-3.6,0-6.5-3.6-10.1c-7.5-7-13.2-6.3-19.5,2.2c-4.8,6.7-6.3,7.2-20.4,7.2&#xD;&#xA;		c-10.6,0-15.2-1-15.2-2.9c0.2-4.3,12.5-21.4,16.8-23.6c22.9-11.1,30.3-11.8,46.4-4.8c15.2,6.7,23.3,17.8,23.3,31.8&#xD;&#xA;		c0,14.4-8.9,23.6-30.5,30.8c-20.9,7-27.9,12.7-24.3,20.7s15.2,7.7,23.6-0.2c4.6-4.3,9.4-6,18-6.5c10.8-0.7,12-0.2,12.7,4.6&#xD;&#xA;		c1,6.7-7.7,18.8-18.3,24.8C1992.8,3252.5,1967.5,3251.8,1955.8,3243.9z"/>
	<path class="st0" d="M867.3,3207.8c-7.9-8.2-8.2-25.5-0.7-33.4c3.1-3.4,8.7-7.2,12.3-8.7c5.8-2.4,7.9-1.9,16.4,3.4&#xD;&#xA;		c16.4,10.3,18.3,28.4,4.1,40.4C891.6,3216,874.1,3215,867.3,3207.8z"/>
	<path class="st0" d="M1229.3,3207.1c-5.1-5.1-6.5-9.1-6.5-16.8c0-11.3,3.8-16.8,16.1-23.1c7.5-3.8,8.4-3.6,17.1,0.7&#xD;&#xA;		c6.3,3.1,10.6,7.7,13.7,14.7l4.3,9.9l-7,10.1c-6.5,9.4-8.2,10.1-19.2,10.8C1237.5,3214,1235.1,3213.1,1229.3,3207.1z"/>
</g>
</svg>