<?xml version="1.0" encoding="utf-8"?>
<svg xmlns="http://www.w3.org/2000/svg" xmlns:xlink="http://www.w3.org/1999/xlink" version="1.1" id="Layer_1" x="0px" y="0px" viewBox="0 0 215 70" style="enable-background:new 0 0 215 70;">
<style type="text/css">
	.st0{fill:#00A2FF;}
	.st1{fill:#FFFFFF;}
	.st2{fill-rule:evenodd;clip-rule:evenodd;fill:#3384CA;}
</style>
<path class="st0" d="M389.6,576.8c0,46.4-37.6,84-84,84c-46.4,0-84-37.6-84-84c0-46.4,37.6-84,84-84&#xD;&#xA;	C352,492.8,389.6,530.4,389.6,576.8z"/>
<path class="st1" d="M261.5,554c0,10.1,8.2,18.4,18.4,18.4c10.1,0,18.4-8.2,18.4-18.4c0-10.1-8.2-18.4-18.4-18.4&#xD;&#xA;	C269.7,535.7,261.5,543.9,261.5,554z M273.5,554c0-3.5,2.9-6.4,6.4-6.4c3.5,0,6.4,2.9,6.4,6.4c0,3.5-2.9,6.4-6.4,6.4&#xD;&#xA;	C276.3,560.4,273.5,557.5,273.5,554z M313,585.5c0,10.1,8.2,18.4,18.4,18.4c10.1,0,18.4-8.2,18.4-18.4c0-10.1-8.2-18.4-18.4-18.4&#xD;&#xA;	C321.2,567.2,313,575.4,313,585.5z M325,585.5c0-3.5,2.9-6.4,6.4-6.4c3.5,0,6.4,2.9,6.4,6.4c0,3.5-2.9,6.4-6.4,6.4&#xD;&#xA;	C327.8,591.9,325,589,325,585.5z M307.4,606.6c-4,1.5-35,14.3-35,14.3s-0.9-33.5-1.1-37.8c-0.2-4.3,3-4.8,5.4-1.9l8.2,9.6l37.9-58.3&#xD;&#xA;	h14.3L295,597.4l12,3.6C310.6,601.9,311.4,605.1,307.4,606.6z"/>
<g id="layer1">
	<g id="g3235" transform="translate(-137.30548,-250.59666)">
		<path id="path2418" class="st2" d="M152.1,284.2l1.3-7.1h3c2.2,0,5.5,0.4,5,3.4c-0.5,2.8-2.4,3.8-4.9,3.8H152.1z M149,301.7&#xD;&#xA;			l1.8-10h5.3c9.2,0,14.1-4.3,15.3-11.2c1.1-6.7-2.6-10.8-11.8-10.8h-15.5l-5.6,32.1H149"/>
		<path id="path2420" class="st2" d="M184.5,290.7h-6.7l5.3-11.5L184.5,290.7z M172.6,301.7l1.9-4.3h10.5l0.5,4.3h10.5l-5.9-32.1&#xD;&#xA;			h-10.7l-17.2,32.1H172.6"/>
		<path id="path2422" class="st2" d="M212,289.8l15.5-20.2h-11.6l-7.5,10.8l-3.6-10.8h-11.7l8.4,20.4l-2.1,11.7h10.5L212,289.8"/>
		<path id="path2424" class="st2" d="M252.7,281.8c0.6-8.2-4-13.1-13.9-13.1c-8.9,0-17.1,6.5-19,16.9c-1.8,10.4,3.5,16.9,14.1,16.9&#xD;&#xA;			c8.4,0,15.3-5,17.7-13.3h-10.1c-1,3.1-3,5.4-6.3,5.4c-5.4,0-5.6-4.2-4.8-8.8c1.1-6.2,3.9-9.3,7.6-9.3c3.3,0,5.1,1.9,4.7,5.2H252.7"/>
		<path id="path2426" class="st2" d="M261.4,301.7l2.2-12.4h10l-2.2,12.4h10.5l5.6-32.1H277l-1.9,10.8h-10l1.9-10.8h-10.5l-5.6,32.1&#xD;&#xA;			H261.4"/>
		<path id="path2428" class="st2" d="M312.1,301.7l1.3-7.5h-16.2l0.9-5.1h13.3l1.3-7.5h-13.3l0.8-4.6h15.7l1.4-7.5H291l-5.7,32.1&#xD;&#xA;			H312.1"/>
		<path id="path2430" class="st2" d="M330.1,292.6l3.5,9.1h11.9l-8-16.7l13.6-15.4h-11.8l-6,8.2l-3.1-8.2h-11.8l7.5,15.4l-14.4,16.7&#xD;&#xA;			h11.9L330.1,292.6"/>
	</g>
</g>
<g>
</g>
<g>
</g>
<g>
</g>
<g>
</g>
<g>
</g>
<g>
</g>
<g>
</g>
<g>
</g>
<g>
</g>
<g>
</g>
<g>
</g>
<g>
</g>
<g>
</g>
<g>
</g>
<g>
</g>
</svg>