<?xml version="1.0" encoding="utf-8"?>
<svg xmlns="http://www.w3.org/2000/svg" xmlns:xlink="http://www.w3.org/1999/xlink" version="1.1" id="Layer_1" x="0px" y="0px" viewBox="0 0 215 70" style="enable-background:new 0 0 215 70;">
<style type="text/css">
	.st0{fill:#00A2FF;}
	.st1{fill:#FFFFFF;}
	.st2{fill:#6D6E71;}
	
		.st3{clip-path:url(#SVGID_00000036216352111448868760000007884879504627700147_);fill:url(#SVGID_00000109005668389342715320000001733292589978083232_);}
</style>
<path class="st0" d="M389.6,576.8c0,46.4-37.6,84-84,84c-46.4,0-84-37.6-84-84c0-46.4,37.6-84,84-84&#xD;&#xA;	C352,492.8,389.6,530.4,389.6,576.8z"/>
<path class="st1" d="M261.5,554c0,10.1,8.2,18.4,18.4,18.4c10.1,0,18.4-8.2,18.4-18.4c0-10.1-8.2-18.4-18.4-18.4&#xD;&#xA;	C269.7,535.7,261.5,543.9,261.5,554z M273.5,554c0-3.5,2.9-6.4,6.4-6.4c3.5,0,6.4,2.9,6.4,6.4c0,3.5-2.9,6.4-6.4,6.4&#xD;&#xA;	C276.3,560.4,273.5,557.5,273.5,554z M313,585.5c0,10.1,8.2,18.4,18.4,18.4c10.1,0,18.4-8.2,18.4-18.4c0-10.1-8.2-18.4-18.4-18.4&#xD;&#xA;	C321.2,567.2,313,575.4,313,585.5z M325,585.5c0-3.5,2.9-6.4,6.4-6.4c3.5,0,6.4,2.9,6.4,6.4c0,3.5-2.9,6.4-6.4,6.4&#xD;&#xA;	C327.8,591.9,325,589,325,585.5z M307.4,606.6c-4,1.5-35,14.3-35,14.3s-0.9-33.5-1.1-37.8c-0.2-4.3,3-4.8,5.4-1.9l8.2,9.6l37.9-58.3&#xD;&#xA;	h14.3L295,597.4l12,3.6C310.6,601.9,311.4,605.1,307.4,606.6z"/>
<g>
	<g>
		<path class="st2" d="M33.8,28.8c0,8-8.2,8.9-14.3,8.9c-2.3,0-4-0.1-4-0.1V20.6c3-0.2,3.1-0.1,4.6-0.1C25,20.5,33.8,21.2,33.8,28.8&#xD;&#xA;			 M6.7,55.4C6.7,55.7,7,56,7.4,56h8.2V40.5c0,0,3.7,0.1,6.1,0.1c6,0,13.5-0.3,18.1-4.9c1.8-1.8,3-4.4,3-7.5c0-2-0.6-4.5-2.5-6.4&#xD;&#xA;			c-3.6-3.6-9.8-4.1-17.4-4.1H6.7V55.4z"/>
	</g>
	<g>
		<path class="st2" d="M182.2,45.3V29.8h8.2c0.4,0,0.7,0.3,0.7,0.7v0.6c0,0,4.9-1.7,10.6-1.7c3.7,0,5.6,0.6,6.1,0.8&#xD;&#xA;			c0.4,0.2,0.5,0.4,0.5,0.8v3.8c0,0-3.6-1.5-7.8-1.5c-4.8,0-9.5,2-9.5,6.8V56h-8.2c-0.4,0-0.7-0.3-0.7-0.7L182.2,45.3z"/>
		<path class="st2" d="M45,32.1c0-0.3,0.1-0.5,0.5-0.8c1.1-0.5,5.5-2.4,12.5-2.4c9.8,0,13.9,3.3,13.9,9.8V56h-8.2&#xD;&#xA;			c-0.4,0-0.7-0.3-0.7-0.7V54c0,0-5.5,2.2-12.1,2.2c-8.9,0-11.7-4-11.7-7.6c0-7.7,10.9-8.7,16.6-8.7c3.1,0,7.1,0.3,7.1,0.3&#xD;&#xA;			c0-2.7-0.5-3.9-1.6-5c-1.5-1.5-3.7-2.2-6-2.2c-5.6,0-8.9,2.1-10.4,2.9L45,32.1z M59.8,42.6c-8,0-11.4,1.3-11.4,5.2&#xD;&#xA;			c0,3.6,3.2,4.9,7,4.9c4.1,0,7.6-1.8,7.6-1.8v-8.2C63,42.7,61.4,42.6,59.8,42.6"/>
		<path class="st2" d="M89.1,68.9c-0.2,0.4-0.5,0.6-1,0.6h-7.6l7-12.7l-14.7-27c0,0,6.5,0,7.3,0c0.2,0,0.6,0,0.8,0.5&#xD;&#xA;			c0.3,0.6,10.4,19.4,10.4,19.4s10.2-19,10.4-19.4c0.1-0.3,0.4-0.5,0.8-0.5c0.5,0,7.9,0,7.9,0L89.1,68.9z"/>
	</g>
	<g>
		<g>
			<defs>
				<path id="SVGID_1_" d="M86.4,1.1c0,0.2,0.1,0.4,0.3,0.5l19.9,11.1c1.3,0.8,2.1,2.1,2.1,3.7c0,0.7-0.1,1.3-0.4,1.9l-3,5.5&#xD;&#xA;					c-0.2,0.3,0.1,0.8,0.6,0.7l24.3-7.4c0.7-0.2,1.2-0.9,1.2-1.6c0-0.8-0.5-1.5-1.2-1.7L87.2,0.5c-0.1,0-0.1,0-0.2,0&#xD;&#xA;					C86.7,0.5,86.4,0.7,86.4,1.1"/>
			</defs>
			<clipPath id="SVGID_00000072243860316464136690000012091961187654347668_">
				<use xlink:href="#SVGID_1_" style="overflow:visible;"/>
			</clipPath>
			
				<linearGradient id="SVGID_00000137827781693426964380000013325869537699192761_" gradientUnits="userSpaceOnUse" x1="101.8718" y1="-693.6183" x2="104.7339" y2="-693.6183" gradientTransform="matrix(15.7048 0 0 15.7048 -1513.4707 10905.6641)">
				<stop offset="0" style="stop-color:#FCAF17"/>
				<stop offset="0.1398" style="stop-color:#F78C1D"/>
				<stop offset="0.25" style="stop-color:#F47421"/>
				<stop offset="1" style="stop-color:#F47421"/>
			</linearGradient>
			
				<rect x="86.4" y="0.5" style="clip-path:url(#SVGID_00000072243860316464136690000012091961187654347668_);fill:url(#SVGID_00000137827781693426964380000013325869537699192761_);" width="44.9" height="24.1"/>
		</g>
	</g>
	<g>
		<path class="st2" d="M159.6,28.9c12.1,0,19,5.7,19,14c0,7.9-6.2,14.1-18.7,14.1c-12.5,0-18.2-6.6-18.2-14&#xD;&#xA;			C141.8,35.8,147.4,28.9,159.6,28.9 M150.7,42.9c0,5.8,4.2,10.4,9.6,10.4c6.2,0,9.4-5.1,9.4-10.1c0-4.8-3.3-10.5-9.3-10.5&#xD;&#xA;			C154.5,32.8,150.7,37.1,150.7,42.9"/>
		<path class="st2" d="M140.6,52.5c0.1,0.3,0.1,0.6-0.3,0.8c-1.2,0.7-5.9,3.7-13,3.7c-12.5,0-18.2-6.6-18.2-14&#xD;&#xA;			c0-7.3,5.6-14.1,17.9-14.1c7.7,0,11.6,2,13.2,2.7c0.3,0.2,0.4,0.5,0.3,0.8l-1.7,3.1c-1.2-1-4.8-2.8-9.2-2.8&#xD;&#xA;			c-6.8,0-11.4,4.4-11.4,10.2c0,6,4.6,9.6,10.6,9.6c5.3,0,9.9-2.4,10.5-2.9L140.6,52.5z"/>
		<path class="st2" d="M196.6,51.6c-1.2,0-2.2,0.9-2.2,2.3c0,1.3,0.9,2.3,2.2,2.3c1.2,0,2.2-0.9,2.2-2.3&#xD;&#xA;			C198.8,52.5,197.8,51.6,196.6,51.6 M196.6,55.8c-1.1,0-1.7-0.8-1.7-1.9c0-1.1,0.8-1.9,1.7-1.9s1.7,0.8,1.7,1.9&#xD;&#xA;			C198.4,55,197.6,55.8,196.6,55.8 M197.6,53.4c0-0.5-0.3-0.7-0.9-0.7h-0.9v2.5h0.4v-1.1h0.4l0.7,1.1h0.5l-0.7-1.1&#xD;&#xA;			C197.4,54.1,197.6,53.8,197.6,53.4 M196.2,53.8V53h0.5c0.3,0,0.5,0,0.5,0.3c0,0.4-0.3,0.4-0.6,0.4H196.2z"/>
	</g>
</g>
<g>
</g>
<g>
</g>
<g>
</g>
<g>
</g>
<g>
</g>
<g>
</g>
<g>
</g>
<g>
</g>
<g>
</g>
<g>
</g>
<g>
</g>
<g>
</g>
<g>
</g>
<g>
</g>
<g>
</g>
</svg>