<svg xmlns="http://www.w3.org/2000/svg" xmlns:xlink="http://www.w3.org/1999/xlink" id="Layer_1" x="0px" y="0px" viewBox="0 0 215 70" style="enable-background:new 0 0 215 70;"><style type="text/css">	.st0{fill:#00A2FF;}	.st1{fill:#FFFFFF;}	.st2{fill:#2CA01C;}</style><path class="st0" d="M389.6,576.8c0,46.4-37.6,84-84,84c-46.4,0-84-37.6-84-84c0-46.4,37.6-84,84-84&#13;&#10; C352,492.8,389.6,530.4,389.6,576.8z"></path><path class="st1" d="M261.5,554c0,10.1,8.2,18.4,18.4,18.4c10.1,0,18.4-8.2,18.4-18.4c0-10.1-8.2-18.4-18.4-18.4&#13;&#10; C269.7,535.7,261.5,543.9,261.5,554z M273.5,554c0-3.5,2.9-6.4,6.4-6.4c3.5,0,6.4,2.9,6.4,6.4c0,3.5-2.9,6.4-6.4,6.4&#13;&#10; C276.3,560.4,273.5,557.5,273.5,554z M313,585.5c0,10.1,8.2,18.4,18.4,18.4c10.1,0,18.4-8.2,18.4-18.4c0-10.1-8.2-18.4-18.4-18.4&#13;&#10; C321.2,567.2,313,575.4,313,585.5z M325,585.5c0-3.5,2.9-6.4,6.4-6.4c3.5,0,6.4,2.9,6.4,6.4c0,3.5-2.9,6.4-6.4,6.4&#13;&#10; C327.8,591.9,325,589,325,585.5z M307.4,606.6c-4,1.5-35,14.3-35,14.3s-0.9-33.5-1.1-37.8c-0.2-4.3,3-4.8,5.4-1.9l8.2,9.6l37.9-58.3&#13;&#10; h14.3L295,597.4l12,3.6C310.6,601.9,311.4,605.1,307.4,606.6z"></path><g><path d="M213.4,45.7c0-0.4-0.4-0.6-0.8-0.6H212v2h0.4v-0.8h0.3l0.4,0.8h0.4l-0.5-0.9C213.2,46.2,213.4,45.9,213.4,45.7L213.4,45.7z&#13;&#10;   M212.3,46v-0.6h0.3c0.2,0,0.4,0,0.4,0.3c0,0.2-0.2,0.3-0.4,0.3H212.3z M212.7,44.4c-1,0-1.8,0.9-1.7,1.8c0,1,0.9,1.8,1.8,1.7&#13;&#10;  c1,0,1.8-0.9,1.7-1.8C214.5,45.1,213.7,44.3,212.7,44.4C212.7,44.3,212.7,44.3,212.7,44.4L212.7,44.4z M212.7,47.6&#13;&#10;  c-0.9,0-1.5-0.7-1.5-1.5s0.7-1.5,1.5-1.5s1.5,0.7,1.5,1.5v0C214.2,47,213.5,47.6,212.7,47.6L212.7,47.6z M96.6,44.6&#13;&#10;  c-2.6,0-4-2.4-4-4.7s1.5-4.5,3.9-4.5c1.1,0,2.6,0.6,3.1,1.4l2.8-2.8c-1.6-1.5-3.7-2.4-5.9-2.3c-4.9,0-8.4,3.5-8.4,8.3&#13;&#10;  c0,4.9,3.5,8.3,8.5,8.3c2.4,0,4.5-0.7,5.8-2.1l-2.7-2.9C98.9,44.2,97.8,44.6,96.6,44.6z M81,47.9h4.4V32.2H81L81,47.9z M73,40.8&#13;&#10;  c0,1.8-1.2,3.8-3.4,3.8c-1.7,0-2.7-1.2-2.7-3.8v-8.6h-4.3V42c0,3.2,1.6,6.4,6,6.4c2,0,3.7-1.6,4.6-2.8h0.1v2.4h4.1V32.2H73V40.8z&#13;&#10;   M54.8,34.2L54.8,34.2c-0.7-0.7-2.4-2.4-5-2.4c-4.4,0-7.8,3.5-7.8,8.2c0,4.9,3.2,8.4,7.6,8.4c1.9,0,3.7-0.9,5-2.4h0.1v9.6H59V32.2&#13;&#10;  h-4.1L54.8,34.2z M50.6,44.6c-2.7,0-4.2-2.4-4.2-4.7c0-2.2,1.4-4.6,4.2-4.6c2.6,0,4.1,2.4,4.1,4.6C54.7,42.2,53.2,44.6,50.6,44.6z&#13;&#10;   M149.3,31.7c-4.9,0-8.5,3.5-8.5,8.2c0,5,3.7,8.4,8.5,8.4s8.5-3.5,8.5-8.4C157.9,35.2,154.3,31.7,149.3,31.7z M149.3,44.6&#13;&#10;  c-2.8,0-4.1-2.4-4.1-4.7c0-2.2,1.3-4.6,4.1-4.6s4.2,2.4,4.2,4.6C153.5,42.2,152.2,44.6,149.3,44.6L149.3,44.6z M203.6,38.2&#13;&#10;  c-2.2-0.5-3-0.8-3-1.7c0-1.2,1.6-1.5,2.3-1.5c1.3,0,2.8,0.8,3.5,1.5l2.6-2.4c-1.2-1.5-3.5-2.3-6-2.3c-3.2,0-6.5,1.6-6.5,5.1&#13;&#10;  c0,3,2.4,3.9,4.7,4.5c2.4,0.6,3.3,1,3.3,2c0,1.4-1.6,1.7-2.2,1.7c-1.5-0.1-2.9-0.7-3.9-1.9l-2.6,2.7c1.4,1.6,3.9,2.6,6.4,2.6&#13;&#10;  c4.3,0,6.8-2,6.8-5.4C208.9,39.9,205.8,38.8,203.6,38.2L203.6,38.2z M195.3,32.2h-5.6l-5.6,6.5h-0.1V23.5h-4.3v24.4h4.3v-7.7h0.1&#13;&#10;  l5.8,7.7h5.7l-6.7-8.6L195.3,32.2z M131,31.8c-2,0-3.5,0.8-4.9,2.1h0V23.5h-4.3v24.4h4.1v-2.2h0.1c1.1,1.7,2.9,2.6,4.9,2.6&#13;&#10;  c4.5,0,7.9-3.5,7.9-8.3C138.8,35.2,135.5,31.7,131,31.8L131,31.8z M130.2,44.6c-2.6,0-4.2-2.4-4.2-4.6c0-2.3,1.6-4.6,4.2-4.6&#13;&#10;  c2.8,0,4.2,2.4,4.2,4.6C134.4,42.3,132.9,44.6,130.2,44.6z M120.2,32.2h-5.6l-5.6,6.5h-0.1V23.5h-4.3v24.4h4.3v-7.7h0.1l5.8,7.7&#13;&#10;  h5.7l-6.7-8.6L120.2,32.2z M168.4,31.8c-5,0-8.5,3.5-8.5,8.2c0,5,3.7,8.4,8.5,8.4c4.9,0,8.5-3.5,8.5-8.4&#13;&#10;  C176.9,35.2,173.3,31.7,168.4,31.8L168.4,31.8z M168.4,44.6c-2.8,0-4.1-2.4-4.1-4.7c0-2.2,1.3-4.6,4.1-4.6c2.8,0,4.1,2.4,4.1,4.6&#13;&#10;  C172.5,42.2,171.2,44.6,168.4,44.6z"></path><circle class="st2" cx="18.8" cy="32.7" r="18.3"></circle><path class="st1" d="M5.6,32.7c0,3.9,3.2,7.1,7.1,7.1h1v-2.6h-1c-2.5,0-4.5-2-4.5-4.5s2-4.5,4.5-4.5h2.4V42c0,1.5,1.2,2.6,2.6,2.6&#13;&#10;  l0,0V25.6h-5.1C8.7,25.6,5.6,28.7,5.6,32.7z M24.9,25.6h-1v2.6h1c2.5,0,4.5,2,4.5,4.5s-2,4.5-4.5,4.5h-2.4V23.3&#13;&#10;  c0-1.5-1.2-2.6-2.6-2.6v19.1h5.1c3.9,0,7.1-3.2,7.1-7.1S28.8,25.6,24.9,25.6z"></path><path d="M59.8,18.6c0.7,0,1.2-0.5,1.2-1.2c0-0.7-0.5-1.2-1.2-1.2s-1.2,0.5-1.2,1.2C58.5,18.1,59.1,18.6,59.8,18.6z M52.6,19.4&#13;&#10;  c-1,0-2,0.6-2.4,1.5h-0.1v-1.3h-1.9v8h2v-4.4c0-1.1,0.6-2.2,1.9-2.2c1.3,0,1.5,1.2,1.5,2.1v4.5h2v-5.1&#13;&#10;  C55.5,20.9,54.7,19.3,52.6,19.4L52.6,19.4L52.6,19.4z M44.1,27.6h2v-8h-2V27.6z M80.5,18.5c0.7,0,1.2-0.5,1.2-1.2&#13;&#10;  c0-0.7-0.5-1.2-1.2-1.2s-1.2,0.5-1.2,1.2C79.2,18,79.8,18.5,80.5,18.5z M77.2,19.6v1.8h2.2v6.2h2v-6.2h2.2v-1.8H77.2z M73.8,27.6h2&#13;&#10;  v-8h-2V27.6z M56.6,21.4h2.2v6.2h2v-6.2h2.2v-1.8h-6.5V21.4z M69.8,24c0,1.1-0.6,2.2-1.9,2.2S66.4,25,66.4,24v-4.4h-2v5&#13;&#10;  c0,1.6,0.9,3.2,3,3.2c1.1,0,2-0.6,2.5-1.5h0v1.3h1.9v-8h-2L69.8,24L69.8,24z"></path></g><g></g><g></g><g></g><g></g><g></g><g></g><g></g><g></g><g></g><g></g><g></g><g></g><g></g><g></g><g></g></svg>