<?xml version="1.0" encoding="utf-8"?>
<svg xmlns="http://www.w3.org/2000/svg" xmlns:xlink="http://www.w3.org/1999/xlink" version="1.1" id="layer" x="0px" y="0px" viewBox="0 0 215 70" style="enable-background:new 0 0 215 70;">
<style type="text/css">
	.st0{fill:#5A05FF;}
</style>
<path class="st0" d="M35.7,47.9h0.6v10.9h-1.8c-11.6,0-18.3-6.6-18.3-17.4v-5.6l3.8-1c1.1-0.3,2.1-0.9,2.9-1.7&#xD;&#xA;	c0.8-0.8,1.3-1.9,1.6-3c0.2-1.1,0.1-2.3-0.2-3.3c-0.4-1.1-1.1-2-2-2.7s-2-1.1-3.1-1.2c-1.1-0.1-2.3,0.1-3.3,0.6&#xD;&#xA;	c-1,0.5-1.9,1.3-2.5,2.2c-0.6,1-0.9,2.1-0.9,3.2v23.7H0.8V28.6c0-0.7,0-1.5,0.1-2.2C2,17.8,9.5,11.2,18.5,11.2&#xD;&#xA;	c8.2,0,15.1,5.4,17.2,12.8c1.1,3.9,0.7,8-1,11.7c-1.4,3.1-3.7,5.7-6.6,7.5C29.1,47.2,31.1,47.9,35.7,47.9 M64.6,27v6.7h-1.1&#xD;&#xA;	c-2.3,0-4.1,0.6-5.3,1.9c-1.3,1.2-1.9,3-1.9,5.1v12h-6.4V27.4h6.4v3.3c1.9-2.5,4.3-3.7,7.3-3.7L64.6,27z M92.3,42.3H72.7&#xD;&#xA;	c0.4,1.5,1.3,2.9,2.6,3.8c1.4,1,3,1.5,4.6,1.4c1.4,0,2.8-0.3,4-0.9c1.1-0.5,2.1-1.3,2.9-2.2l4.3,3.8c-1.4,1.6-3.1,2.9-5,3.7&#xD;&#xA;	c-2,0.9-4.2,1.4-6.5,1.3c-2.5,0-5-0.6-7.2-1.7c-2.1-1.1-3.8-2.8-5-4.8c-1.2-2.1-1.8-4.4-1.8-6.7s0.6-4.7,1.7-6.8&#xD;&#xA;	c1.1-2,2.8-3.6,4.8-4.7c2.1-1.1,4.4-1.7,6.8-1.7c3.8,0,6.9,1.2,9.5,3.8s3.8,5.7,3.8,9.5C92.4,40.8,92.4,41.5,92.3,42.3L92.3,42.3z&#xD;&#xA;	 M83.2,33.8c-1.2-0.9-2.6-1.4-4.1-1.4s-2.9,0.5-4.1,1.4c-1.2,1-2,2.3-2.3,3.8h12.9C85.2,36.1,84.4,34.8,83.2,33.8L83.2,33.8z&#xD;&#xA;	 M133.7,29.3c1.7,1.7,2.6,4,2.6,6.9v16.4h-6.4V38.1c0-1.6-0.5-2.8-1.4-3.7c-0.9-0.9-2.1-1.4-3.6-1.4c-1.6,0-2.8,0.5-3.8,1.4&#xD;&#xA;	s-1.5,2.2-1.5,3.8v14.4h-6.4V38.1c0-1.5-0.5-2.8-1.4-3.7c-0.9-0.9-2.1-1.4-3.6-1.4c-0.7,0-1.4,0.1-2.1,0.3c-0.6,0.2-1.2,0.6-1.8,1.1&#xD;&#xA;	c-0.5,0.5-0.9,1.1-1.1,1.7c-0.2,0.6-0.4,1.4-0.4,2v14.4h-6.4V27.4h6.5V30c1.9-2.1,4.4-3.2,7.5-3.2c1.6,0,3.2,0.3,4.7,1.1&#xD;&#xA;	c1.4,0.7,2.5,1.7,3.2,3c2.1-2.7,4.9-4.1,8.6-4.1C129.7,26.8,132,27.6,133.7,29.3z M167.1,40c0,3.8-1.3,6.9-3.9,9.4&#xD;&#xA;	c-2.6,2.5-5.8,3.8-9.7,3.8c-3.8,0-7.1-1.3-9.7-3.8c-2.6-2.5-3.9-5.7-3.9-9.4c0-3.8,1.3-6.9,3.9-9.4c2.6-2.5,5.8-3.8,9.7-3.8&#xD;&#xA;	s7.1,1.3,9.7,3.8C165.8,33.1,167.1,36.2,167.1,40z M158.5,45c1.2-1.4,2-3.1,2-5c0-1.9-0.7-3.6-2-5c-0.6-0.6-1.4-1.2-2.3-1.5&#xD;&#xA;	s-1.7-0.5-2.7-0.5s-1.8,0.2-2.7,0.5c-0.9,0.4-1.6,0.9-2.3,1.5c-1.3,1.4-2,3.1-2,5c0,1.9,0.7,3.6,2,5c1.3,1.3,3.1,2,4.9,2&#xD;&#xA;	C155.4,47,157.2,46.2,158.5,45L158.5,45z M178.8,33.3v10.5c0,2.2,1.2,3.2,3.5,3.2c1.1,0,2.3-0.3,3.3-0.9v6c-1.5,0.7-3.1,1.1-4.7,1.1&#xD;&#xA;	c-2.8,0-4.9-0.7-6.4-2.2c-1.4-1.5-2.1-3.6-2.1-6.2V33.3h-4v-5.9h4v-4.2l6.4-2.2v6.4h6.8v5.9L178.8,33.3L178.8,33.3z M214.1,42.3&#xD;&#xA;	h-19.5c0.4,1.5,1.3,2.9,2.6,3.8c1.4,1,3,1.5,4.6,1.4c1.4,0,2.8-0.3,4-0.9c1.1-0.5,2.1-1.3,2.9-2.2l4.3,3.8c-1.4,1.6-3.1,2.9-5,3.7&#xD;&#xA;	c-2,0.9-4.2,1.4-6.5,1.3c-2.5,0-5-0.6-7.2-1.7c-2.1-1.1-3.8-2.8-5-4.8c-1.2-2.1-1.8-4.4-1.8-6.7s0.6-4.7,1.7-6.8&#xD;&#xA;	c1.1-2,2.8-3.6,4.8-4.7c2.1-1.1,4.4-1.7,6.8-1.7c3.8,0,6.9,1.2,9.5,3.8s3.8,5.7,3.8,9.5C214.2,40.8,214.2,41.6,214.1,42.3z&#xD;&#xA;	 M205,33.8c-1.2-0.9-2.6-1.4-4.1-1.4s-2.9,0.5-4.1,1.4c-1.2,1-2,2.3-2.3,3.8h12.9C207.1,36.1,206.2,34.8,205,33.8L205,33.8z"/>
</svg>