<svg width="74" height="39" viewBox="0 0 74 39" fill="none" xmlns="http://www.w3.org/2000/svg">
<path d="M35.7173 22.5514H37.7085C40.5991 22.5514 42.7206 24.5426 44.5195 26.4067L53.7714 35.9161C55.8278 37.9724 57.1118 38.6796 60.3902 38.6796H73.429V30.6497H52.8068C50.7505 30.6497 49.5317 27.8862 51.0079 26.4099L66.1682 11.2431L60.5141 5.52379L45.2886 20.7493C43.4245 22.6133 40.8565 21.3913 40.8565 18.9504V0H32.5692V18.9536C32.5692 21.3945 29.936 22.5514 28.1371 20.7525L12.9117 5.52705L7.25751 11.2464L22.4211 26.4099C23.8973 27.8862 22.6785 30.6497 20.6222 30.6497H0V38.6796H12.9768C16.3172 38.6796 17.6012 37.9072 19.6575 35.8541L28.9095 26.537C30.7736 24.6729 32.8299 22.5547 35.7205 22.5547" fill="#D7E6FF"/>
</svg>
