<svg width="19" height="19" viewBox="0 0 19 19" fill="none" xmlns="http://www.w3.org/2000/svg">
<path fill-rule="evenodd" clip-rule="evenodd" d="M2.09998 0.242676C1.27155 0.242676 0.599976 0.914246 0.599976 1.74268V16.7427C0.599976 17.5711 1.27155 18.2427 2.09998 18.2427H17.1C17.9284 18.2427 18.6 17.5711 18.6 16.7427V1.74268C18.6 0.914246 17.9284 0.242676 17.1 0.242676H2.09998ZM6.12074 4.2454C6.12637 5.20165 5.41059 5.79087 4.56121 5.78665C3.76105 5.78243 3.06355 5.1454 3.06777 4.24681C3.07199 3.40165 3.73996 2.72243 4.60762 2.74212C5.48793 2.76181 6.12637 3.40728 6.12074 4.2454ZM9.87968 7.00444H7.35969H7.35828V15.5643H10.0217V15.3646C10.0217 14.9847 10.0214 14.6047 10.0211 14.2246C10.0203 13.2108 10.0194 12.1959 10.0246 11.1824C10.026 10.9363 10.0372 10.6804 10.1005 10.4455C10.3381 9.56798 11.1271 9.00128 12.0074 9.14058C12.5727 9.22908 12.9467 9.55678 13.1042 10.0898C13.2013 10.423 13.2449 10.7816 13.2491 11.129C13.2605 12.1766 13.2589 13.2242 13.2573 14.2719C13.2567 14.6417 13.2561 15.0117 13.2561 15.3815V15.5629H15.928V15.3576C15.928 14.9056 15.9278 14.4537 15.9275 14.0018C15.927 12.8723 15.9264 11.7428 15.9294 10.6129C15.9308 10.1024 15.876 9.59898 15.7508 9.10538C15.5638 8.37128 15.1771 7.76378 14.5485 7.32508C14.1027 7.01287 13.6133 6.81178 13.0663 6.78928C13.004 6.78669 12.9412 6.7833 12.8781 6.77989C12.5984 6.76477 12.3141 6.74941 12.0467 6.80334C11.2817 6.95662 10.6096 7.30678 10.1019 7.92408C10.0429 7.99488 9.98518 8.06678 9.89908 8.17408L9.87968 8.19838V7.00444ZM3.28162 15.5671H5.9324V7.01001H3.28162V15.5671Z" fill="#D7E6FF"/>
</svg>
