<svg width="100" height="100" viewBox="0 0 100 100" fill="none" xmlns="http://www.w3.org/2000/svg">
<path d="M85.6168 40.5912C85.6168 51.4497 81.2962 61.8533 73.6214 69.5281C65.9466 77.203 55.5429 81.5236 44.6845 81.5236H25.5259C23.8204 81.5236 22.9676 79.477 24.1615 78.2831L53.2689 49.1757L50.8812 46.788L21.7737 75.8954C20.5799 77.0893 18.5333 76.2365 18.5333 74.531V55.3724C18.5333 44.5139 22.8539 34.1103 30.5287 26.4355C38.2035 18.7607 48.6072 14.44 59.4656 14.44H85.6737V40.6481L85.6168 40.5912ZM98.1239 0H53.6669C52.6436 0 51.6771 0.397953 50.938 1.13701L5.23025 46.8448C4.49119 47.5839 4.09324 48.5503 4.09324 49.5736V66.5151C4.09324 67.5384 4.49119 68.5048 5.23025 69.2439L16.8846 80.7277L0 97.6123L2.38772 100L19.3292 83.0586L31.2678 94.8266C32.0068 95.5088 32.9733 95.9068 33.9397 95.9068H50.4264C51.4497 95.9068 52.4161 95.5088 53.1552 94.7698L98.863 49.062C99.602 48.3229 100 47.3565 100 46.3331V1.93292C100 0.852757 99.1472 0 98.0671 0" fill="#1E3E37"/>
</svg>
