<svg width="72" height="103" viewBox="0 0 72 103" fill="none" xmlns="http://www.w3.org/2000/svg">
<path d="M24.0813 94.1914L65.4158 52.8569C66.696 51.5767 65.7816 49.3209 63.9526 49.3209H33.1041C31.4581 49.3209 30.4826 47.492 31.3971 46.1507L59.624 3.1702C60.5385 1.82897 59.5631 0 57.917 0H37.3108C36.5182 0 35.7866 0.426772 35.4818 1.15836L7.37679 58.7706C6.70617 60.1118 7.68161 61.7578 9.20574 61.7578H35.177C36.7011 61.7578 37.7375 63.4039 37.0059 64.7452L21.8256 93.3988C20.4234 96.0813 17.619 97.7884 14.5707 97.7884H0V102.909H72V97.7884H25.5445C23.7155 97.7884 22.801 95.5936 24.0813 94.2524" fill="#1E3E37"/>
</svg>
